<svg xmlns="http://www.w3.org/2000/svg" width="300" height="180" viewBox="0 0 300 180">
  <path fill="#F23030" d="M120.99998,19.9999941 L191,20 L215,44 L215,92.7006568 L210,100.778943 L215,108.591421 L210,115.323885 L215,122.91687 L215,137.99999 C215,139.104559 214.104569,139.99999 213,139.99999 L120.99998,139.99999 C119.895411,139.99999 118.99998,139.104559 118.99998,137.99999 C118.99998,137.99999 118.99998,137.99999 118.99998,137.99999 L118.999982,70.6028877 L123.999982,62.598128 L118.999982,56.3413748 L123.999982,49.7409964 L118.999982,44.5417978 L118.99998,21.9999939 C118.99998,20.8954244 119.895411,19.9999938 120.99998,19.9999938 C120.99998,19.9999938 120.99998,19.9999938 120.99998,19.9999938 Z"/>
  <path fill="#FFFFFF" d="M191,20 L215,44 L192,44 C191.447715,44 191,43.5522847 191,43 L191,20 Z" opacity=".3"/>
  <rect width="60" height="2" x="137" y="72" fill="#FFFFFF"/>
  <rect width="60" height="4" x="137" y="58" fill="#FFFFFF"/>
  <rect width="60" height="2" x="137" y="84" fill="#FFFFFF"/>
  <rect width="26" height="2" x="171" y="96" fill="#FFFFFF"/>
  <rect width="26" height="2" x="171" y="108" fill="#FFFFFF"/>
  <rect width="26" height="2" x="171" y="120" fill="#FFFFFF"/>
  <path fill="#BF2626" d="M110,95 L164,95 C164.552285,95 165,95.4477153 165,96 L165,122 C165,122.552285 164.552285,123 164,123 L110,123 C109.447715,123 109,122.552285 109,122 L109,96 C109,95.4477153 109.447715,95 110,95 Z"/>
  <path fill="#FFFFFF" fill-rule="nonzero" d="M118,116 L118,100 L122.886392,100 C126.325843,100 128.88764,101.223242 128.88764,104.941896 C128.88764,108.489297 126.325843,110.12844 122.981273,110.12844 L120.751561,110.12844 L120.751561,116 L118,116 Z M120.751561,107.853211 L122.76779,107.853211 C125.068664,107.853211 126.183521,106.899083 126.183521,104.941896 C126.183521,102.93578 124.973783,102.275229 122.672909,102.275229 L120.751561,102.275229 L120.751561,107.853211 Z M131.805243,116 L131.805243,100 L135.956305,100 C140.700375,100 143.499376,102.642202 143.499376,107.926606 C143.499376,113.235474 140.700375,116 136.098627,116 L131.805243,116 Z M134.556804,113.700306 L135.766542,113.700306 C138.897628,113.700306 140.676654,111.865443 140.676654,107.926606 C140.676654,104.012232 138.897628,102.299694 135.766542,102.299694 L134.556804,102.299694 L134.556804,113.700306 Z M146.630462,116 L146.630462,100 L156,100 L156,102.397554 L149.382022,102.397554 L149.382022,106.923547 L155.027466,106.923547 L155.027466,109.321101 L149.382022,109.321101 L149.382022,116 L146.630462,116 Z"/>
  <path fill="#BF2626" d="M93.2157613,143 L158,143 L158,146 L131.75,152 L88,152 L88,158 L93.515549,158 C95.1300717,155.588029 97.8795839,154 101,154 C105.970563,154 110,158.029437 110,163 C110,167.970563 105.970563,172 101,172 C97.4662787,172 94.4082222,169.963437 92.9355196,167 L73.0644804,167 C71.5917778,169.963437 68.5337213,172 65,172 C60.0294373,172 56,167.970563 56,163 C56,158.029437 60.0294373,154 65,154 C68.1204161,154 70.8699283,155.588029 72.484451,158 L79,158 L79,148.174114 L76.6155464,149.041984 C75.5775906,149.419769 74.4299059,148.884595 74.0521209,147.846639 L72.6840403,144.087869 C72.3062553,143.049913 72.8414294,141.902228 73.8793852,141.524443 L92.6732377,134.68404 C93.7111935,134.306255 94.8588782,134.841429 95.2366632,135.879385 L96.6047438,139.638156 C96.9825288,140.676112 96.4473546,141.823796 95.4093988,142.201581 L93.2157613,143 Z M88,17 L88,22.3849597 L92.6732377,20.6840403 C93.7111935,20.3062553 94.8588782,20.8414294 95.2366632,21.8793852 L96.6047438,25.6381557 C96.9825288,26.6761115 96.4473546,27.8237962 95.4093988,28.2015813 L76.6155464,35.0419841 C75.5775906,35.4197691 74.4299059,34.884595 74.0521209,33.8466392 L72.6840403,30.0878687 C72.3062553,29.0499129 72.8414294,27.9022282 73.8793852,27.5244432 L79,25.6606918 L79,8 L88,8 L131.75,8 L158,14 L158,17 L88,17 Z M73.8793852,40.1911098 L92.6732377,33.350707 C93.7111935,32.9729219 94.8588782,33.5080961 95.2366632,34.5460519 L96.6047438,38.3048224 C96.9825288,39.3427782 96.4473546,40.4904629 95.4093988,40.8682479 L76.6155464,47.7086508 C75.5775906,48.0864358 74.4299059,47.5512616 74.0521209,46.5133058 L72.6840403,42.7545353 C72.3062553,41.7165795 72.8414294,40.5688948 73.8793852,40.1911098 Z M73.8793852,52.8577765 L92.6732377,46.0173736 C93.7111935,45.6395886 94.8588782,46.1747628 95.2366632,47.2127186 L96.6047438,50.9714891 C96.9825288,52.0094449 96.4473546,53.1571296 95.4093988,53.5349146 L76.6155464,60.3753175 C75.5775906,60.7531025 74.4299059,60.2179283 74.0521209,59.1799725 L72.6840403,55.421202 C72.3062553,54.3832462 72.8414294,53.2355615 73.8793852,52.8577765 Z M73.8793852,65.5244432 L92.6732377,58.6840403 C93.7111935,58.3062553 94.8588782,58.8414294 95.2366632,59.8793852 L96.6047438,63.6381557 C96.9825288,64.6761115 96.4473546,65.8237962 95.4093988,66.2015813 L76.6155464,73.0419841 C75.5775906,73.4197691 74.4299059,72.884595 74.0521209,71.8466392 L72.6840403,68.0878687 C72.3062553,67.0499129 72.8414294,65.9022282 73.8793852,65.5244432 Z M73.8793852,78.1911098 L92.6732377,71.350707 C93.7111935,70.9729219 94.8588782,71.5080961 95.2366632,72.5460519 L96.6047438,76.3048224 C96.9825288,77.3427782 96.4473546,78.4904629 95.4093988,78.8682479 L76.6155464,85.7086508 C75.5775906,86.0864358 74.4299059,85.5512616 74.0521209,84.5133058 L72.6840403,80.7545353 C72.3062553,79.7165795 72.8414294,78.5688948 73.8793852,78.1911098 Z M73.8793852,90.8577765 L92.6732377,84.0173736 C93.7111935,83.6395886 94.8588782,84.1747628 95.2366632,85.2127186 L96.6047438,88.9714891 C96.9825288,90.0094449 96.4473546,91.1571296 95.4093988,91.5349146 L76.6155464,98.3753175 C75.5775906,98.7531025 74.4299059,98.2179283 74.0521209,97.1799725 L72.6840403,93.421202 C72.3062553,92.3832462 72.8414294,91.2355615 73.8793852,90.8577765 Z M73.8793852,103.524443 L92.6732377,96.6840403 C93.7111935,96.3062553 94.8588782,96.8414294 95.2366632,97.8793852 L96.6047438,101.638156 C96.9825288,102.676112 96.4473546,103.823796 95.4093988,104.201581 L76.6155464,111.041984 C75.5775906,111.419769 74.4299059,110.884595 74.0521209,109.846639 L72.6840403,106.087869 C72.3062553,105.049913 72.8414294,103.902228 73.8793852,103.524443 Z M73.8793852,116.19111 L92.6732377,109.350707 C93.7111935,108.972922 94.8588782,109.508096 95.2366632,110.546052 L96.6047438,114.304822 C96.9825288,115.342778 96.4473546,116.490463 95.4093988,116.868248 L76.6155464,123.708651 C75.5775906,124.086436 74.4299059,123.551262 74.0521209,122.513306 L72.6840403,118.754535 C72.3062553,117.71658 72.8414294,116.568895 73.8793852,116.19111 Z M73.8793852,128.857776 L92.6732377,122.017374 C93.7111935,121.639589 94.8588782,122.174763 95.2366632,123.212719 L96.6047438,126.971489 C96.9825288,128.009445 96.4473546,129.15713 95.4093988,129.534915 L76.6155464,136.375317 C75.5775906,136.753102 74.4299059,136.217928 74.0521209,135.179972 L72.6840403,131.421202 C72.3062553,130.383246 72.8414294,129.235562 73.8793852,128.857776 Z"/>
  <path fill="#F23030" fill-rule="nonzero" d="M222 151C222.552285 151 223 150.552285 223 150 223 149.447715 222.552285 149 222 149 221.447715 149 221 149.447715 221 150 221 150.552285 221.447715 151 222 151zM222 152C220.895431 152 220 151.104569 220 150 220 148.895431 220.895431 148 222 148 223.104569 148 224 148.895431 224 150 224 151.104569 223.104569 152 222 152zM50 136C50.5522847 136 51 135.552285 51 135 51 134.447715 50.5522847 134 50 134 49.4477153 134 49 134.447715 49 135 49 135.552285 49.4477153 136 50 136zM50 137C48.8954305 137 48 136.104569 48 135 48 133.895431 48.8954305 133 50 133 51.1045695 133 52 133.895431 52 135 52 136.104569 51.1045695 137 50 137z"/>
  <polygon fill="#F23030" points="232 137 232 135 233 135 233 137 235 137 235 138 233 138 233 140 232 140 232 138 230 138 230 137"/>
  <path fill="#F23030" fill-rule="nonzero" d="M38,35 C38.5522847,35 39,34.5522847 39,34 C39,33.4477153 38.5522847,33 38,33 C37.4477153,33 37,33.4477153 37,34 C37,34.5522847 37.4477153,35 38,35 Z M38,36 C36.8954305,36 36,35.1045695 36,34 C36,32.8954305 36.8954305,32 38,32 C39.1045695,32 40,32.8954305 40,34 C40,35.1045695 39.1045695,36 38,36 Z"/>
  <path fill="#F23030" fill-rule="nonzero" d="M55.8062676 17.1937324C56.0645775 17.4520422 56.0645775 17.8708451 55.8062676 18.1291549L54.4031338 19.5322887C54.144824 19.7905985 53.7260211 19.7905985 53.4677113 19.5322887 53.2094015 19.2739789 53.2094015 18.855176 53.4677113 18.5968662L54.8708451 17.1937324C55.1291549 16.9354225 55.5479578 16.9354225 55.8062676 17.1937324L55.8062676 17.1937324zM52.5322887 20.4677113C52.7905985 20.7260211 52.7905985 21.144824 52.5322887 21.4031338L51.1291549 22.8062676C50.8708451 23.0645775 50.4520422 23.0645775 50.1937324 22.8062676 49.9354225 22.5479578 49.9354225 22.1291549 50.1937324 21.8708451L51.5968662 20.4677113C51.855176 20.2094015 52.2739789 20.2094015 52.5322887 20.4677113zM55.8062676 22.8062676C55.5479578 23.0645775 55.1291549 23.0645775 54.8708451 22.8062676L53.4677113 21.4031338C53.2094015 21.144824 53.2094015 20.7260211 53.4677113 20.4677113 53.7260211 20.2094015 54.144824 20.2094015 54.4031338 20.4677113L55.8062676 21.8708451C56.0645775 22.1291549 56.0645775 22.5479578 55.8062676 22.8062676zM52.5322887 19.5322887C52.2739789 19.7905985 51.855176 19.7905985 51.5968662 19.5322887L50.1937324 18.1291549C49.9354225 17.8708451 49.9354225 17.4520422 50.1937324 17.1937324 50.4520422 16.9354225 50.8708451 16.9354225 51.1291549 17.1937324L52.5322887 18.5968662C52.7905985 18.855176 52.7905985 19.2739789 52.5322887 19.5322887zM43.8062676 113.193732C44.0645775 113.452042 44.0645775 113.870845 43.8062676 114.129155L42.4031338 115.532289C42.144824 115.790599 41.7260211 115.790599 41.4677113 115.532289 41.2094015 115.273979 41.2094015 114.855176 41.4677113 114.596866L42.8708451 113.193732C43.1291549 112.935423 43.5479578 112.935423 43.8062676 113.193732L43.8062676 113.193732zM40.5322887 116.467711C40.7905985 116.726021 40.7905985 117.144824 40.5322887 117.403134L39.1291549 118.806268C38.8708451 119.064577 38.4520422 119.064577 38.1937324 118.806268 37.9354225 118.547958 37.9354225 118.129155 38.1937324 117.870845L39.5968662 116.467711C39.855176 116.209401 40.2739789 116.209401 40.5322887 116.467711zM43.8062676 118.806268C43.5479578 119.064577 43.1291549 119.064577 42.8708451 118.806268L41.4677113 117.403134C41.2094015 117.144824 41.2094015 116.726021 41.4677113 116.467711 41.7260211 116.209401 42.144824 116.209401 42.4031338 116.467711L43.8062676 117.870845C44.0645775 118.129155 44.0645775 118.547958 43.8062676 118.806268zM40.5322887 115.532289C40.2739789 115.790599 39.855176 115.790599 39.5968662 115.532289L38.1937324 114.129155C37.9354225 113.870845 37.9354225 113.452042 38.1937324 113.193732 38.4520422 112.935423 38.8708451 112.935423 39.1291549 113.193732L40.5322887 114.596866C40.7905985 114.855176 40.7905985 115.273979 40.5322887 115.532289z"/>
  <polygon fill="#212121" points="212 21.5 217.5 16 219 17.5 213.5 23 217 23 217 25 210 25 210 18 212 18"/>
  <path fill="#F23030" fill-rule="nonzero" d="M241.806268,67.1937324 C242.064577,67.4520422 242.064577,67.8708451 241.806268,68.1291549 L240.403134,69.5322887 C240.144824,69.7905985 239.726021,69.7905985 239.467711,69.5322887 C239.209401,69.2739789 239.209401,68.855176 239.467711,68.5968662 L240.870845,67.1937324 C241.129155,66.9354225 241.547958,66.9354225 241.806268,67.1937324 L241.806268,67.1937324 Z M238.532289,70.4677113 C238.790599,70.7260211 238.790599,71.144824 238.532289,71.4031338 L237.129155,72.8062676 C236.870845,73.0645775 236.452042,73.0645775 236.193732,72.8062676 C235.935423,72.5479578 235.935423,72.1291549 236.193732,71.8708451 L237.596866,70.4677113 C237.855176,70.2094015 238.273979,70.2094015 238.532289,70.4677113 Z M241.806268,72.8062676 C241.547958,73.0645775 241.129155,73.0645775 240.870845,72.8062676 L239.467711,71.4031338 C239.209401,71.144824 239.209401,70.7260211 239.467711,70.4677113 C239.726021,70.2094015 240.144824,70.2094015 240.403134,70.4677113 L241.806268,71.8708451 C242.064577,72.1291549 242.064577,72.5479578 241.806268,72.8062676 Z M238.532289,69.5322887 C238.273979,69.7905985 237.855176,69.7905985 237.596866,69.5322887 L236.193732,68.1291549 C235.935423,67.8708451 235.935423,67.4520422 236.193732,67.1937324 C236.452042,66.9354225 236.870845,66.9354225 237.129155,67.1937324 L238.532289,68.5968662 C238.790599,68.855176 238.790599,69.2739789 238.532289,69.5322887 Z"/>
  <path fill="#F23030" fill-rule="nonzero" d="M251,86 C251.552285,86 252,85.5522847 252,85 C252,84.4477153 251.552285,84 251,84 C250.447715,84 250,84.4477153 250,85 C250,85.5522847 250.447715,86 251,86 Z M251,87 C249.895431,87 249,86.1045695 249,85 C249,83.8954305 249.895431,83 251,83 C252.104569,83 253,83.8954305 253,85 C253,86.1045695 252.104569,87 251,87 Z"/>
</svg>
