<svg xmlns="http://www.w3.org/2000/svg" xmlns:xlink="http://www.w3.org/1999/xlink" width="835.5" height="104.25" viewBox="0 0 4456 556" fill="none" xmlns:v="https://vecta.io/nano"><style><![CDATA[.B{fill:#fff}.C{fill:#242938}.D{fill-rule:evenodd}]]></style><svg width="256" height="256"><rect width="256" height="256" rx="60" class="C"/><path fill="url(#A)" d="M127.279 29c-50.772 0-47.602 22.018-47.602 22.018l.057 22.81h48.451v6.849H60.489S28 76.993 28 128.222s28.357 49.414 28.357 49.414h16.924v-23.773s-.912-28.357 27.905-28.357h48.054s26.999.436 26.999-26.094V55.546S180.338 29 127.279 29zm-26.716 15.339a8.71 8.71 0 1 1 0 17.433 8.71 8.71 0 1 1 0-17.433z"/><path fill="url(#B)" d="M128.721 227.958c50.772 0 47.602-22.017 47.602-22.017l-.057-22.811h-48.451v-6.849h67.696S228 179.966 228 128.736s-28.357-49.413-28.357-49.413h-16.924v23.773s.912 28.357-27.905 28.357H106.76s-26.999-.437-26.999 26.093v43.866s-4.099 26.546 48.96 26.546zm26.716-15.339a8.71 8.71 0 1 1 0-17.433 8.71 8.71 0 1 1 0 17.433z"/><defs><linearGradient id="A" x1="47.22" x2="146.333" y1="46.896" y2="145.02" xlink:href="#L"><stop stop-color="#387eb8"/><stop offset="1" stop-color="#366994"/></linearGradient><linearGradient id="B" x1="108.056" x2="214.492" y1="109.905" y2="210.522" xlink:href="#L"><stop stop-color="#ffe052"/><stop offset="1" stop-color="#ffc331"/></linearGradient></defs></svg><g transform="translate(300)"><svg width="256" height="256"><rect width="256" height="256" rx="60" class="C"/><path d="M101.634 182.619s-7.679 4.674 5.345 6.011c15.728 2.004 24.044 1.669 41.407-1.668 0 0 4.674 3.009 11.02 5.344-39.075 16.696-88.497-1.002-57.772-9.687zm-5.009-21.705s-8.35 6.346 4.674 7.679c17.028 1.669 30.391 2.004 53.433-2.667 0 0 3.009 3.341 8.015 5.01-47.083 14.025-99.849 1.333-66.122-10.019v-.003zm92.17 38.07s5.676 4.674-6.346 8.35c-22.376 6.678-93.839 8.685-113.876 0-7.009-3.009 6.346-7.352 10.685-8.015 4.343-1.002 6.678-1.002 6.678-1.002-7.68-5.344-51.094 11.02-22.041 15.729 79.813 13.027 145.603-5.676 124.896-15.028l.003-.034zm-83.488-60.781s-36.402 8.685-13.028 11.687c10.019 1.333 29.721 1.002 48.089-.335 15.028-1.334 30.09-4.007 30.09-4.007s-5.345 2.338-9.017 4.674c-37.099 9.693-108.23 5.351-87.858-4.668 17.37-8.35 31.724-7.351 31.724-7.351h0zm65.116 36.401c37.407-19.37 20.037-38.07 8.015-35.731-3.009.667-4.342 1.334-4.342 1.334s1.001-2.004 3.34-2.667c23.709-8.35 42.413 25.046-7.679 38.07 0 0 .335-.335.666-1.002v-.004zm-61.444 52.76c36.067 2.339 91.168-1.334 92.505-18.369 0 0-2.667 6.678-29.72 11.688-30.722 5.676-68.796 5.009-91.168 1.333 0 0 4.674 4.007 28.386 5.344l-.003.004z" class="B"/><path fill="#f58219" d="M147.685 28s20.704 21.039-19.702 52.759c-32.394 25.713-7.351 40.409 0 57.102-19.035-17.028-32.722-32.059-23.377-46.085C118.331 71.083 156.062 61.064 147.685 28zM137 123.842c9.683 11.02-2.667 21.039-2.667 21.039s24.711-12.686 13.359-28.387c-10.354-15.028-18.368-22.376 25.046-47.425 0 0-68.46 17.028-35.731 54.766l-.007.007z"/></svg></g><g transform="translate(600)"><svg width="256" height="256"><rect width="256" height="256" fill="#00599c" rx="60"/><path d="M110.759 210.517C65.125 210.517 28 173.392 28 127.759S65.125 45 110.759 45c29.445 0 56.908 15.846 71.668 41.353l-35.816 20.726c-7.387-12.768-21.126-20.7-35.852-20.7-22.817 0-41.38 18.563-41.38 41.38s18.562 41.379 41.38 41.379c14.727 0 28.466-7.932 35.854-20.702l35.816 20.725c-14.76 25.51-42.223 41.356-71.67 41.356zm82.758-87.356h-9.196v-9.196h-9.194v9.196h-9.196v9.195h9.196v9.196h9.194v-9.196h9.196v-9.195zm34.483 0h-9.196v-9.196h-9.194v9.196h-9.196v9.195h9.196v9.196h9.194v-9.196H228v-9.195z" class="B"/></svg></g><g transform="translate(900)"><svg width="256" height="256"><rect width="256" height="256" rx="60" fill="#394aab"/><path d="M134.001 33c35.143 0 65.827 19.086 82.261 47.456l-.16-.273-41.349 23.808c-8.146-13.793-23.081-23.102-40.213-23.293l-.539-.003c-26.126 0-47.306 21.179-47.306 47.304a47.08 47.08 0 0 0 6.239 23.47c8.154 14.235 23.483 23.837 41.068 23.837 17.692 0 33.108-9.724 41.221-24.111l-.197.345 41.286 23.918c-16.254 28.13-46.517 47.157-81.252 47.536l-1.058.006c-35.255 0-66.026-19.204-82.419-47.724C43.579 161.353 39 145.212 39 127.999 39 75.533 81.532 33 134.001 33z" class="B"/></svg></g><g transform="translate(1200)"><svg width="256" height="256"><rect width="256" height="256" rx="60" class="C"/><path d="M49.158 100.246h28.408c8.338.07 14.38 2.474 18.126 7.208s4.982 11.2 3.71 19.398c-.494 3.746-1.59 7.42-3.286 11.024-1.626 3.604-3.886 6.854-6.784 9.752-3.534 3.674-7.314 6.006-11.342 6.996s-8.198 1.484-12.508 1.484h-12.72l-4.028 20.14H34l15.158-76.002h0zM61.56 112.33l-6.36 31.8a7.8 7.8 0 0 0 1.272.106h1.484c6.784.07 12.438-.6 16.96-2.014 4.522-1.484 7.562-6.642 9.116-15.476 1.272-7.42 0-11.696-3.816-12.826-3.746-1.13-8.444-1.66-14.098-1.59-.848.07-1.66.106-2.438.106h-2.226l.106-.106M116.186 80h14.628l-4.134 20.246h13.144c7.208.142 12.578 1.626 16.112 4.452 3.604 2.826 4.664 8.198 3.18 16.112l-7.102 35.298h-14.84l6.784-33.708c.706-3.534.494-6.042-.636-7.526s-3.568-2.226-7.314-2.226l-11.766-.106-8.692 43.566h-14.628L116.186 80zm58.638 20.246h28.408c8.338.07 14.38 2.474 18.126 7.208s4.982 11.2 3.71 19.398c-.494 3.746-1.59 7.42-3.286 11.024-1.626 3.604-3.886 6.854-6.784 9.752-3.534 3.674-7.314 6.006-11.342 6.996s-8.198 1.484-12.508 1.484h-12.72l-4.028 20.14h-14.734l15.158-76.002h0zm12.402 12.084l-6.36 31.8a7.8 7.8 0 0 0 1.272.106h1.484c6.784.07 12.438-.6 16.96-2.014 4.522-1.484 7.562-6.642 9.116-15.476 1.272-7.42 0-11.696-3.816-12.826-3.746-1.13-8.444-1.66-14.098-1.59-.848.07-1.66.106-2.438.106h-2.226l.106-.106" class="B"/></svg></g><g transform="translate(1500)"><svg width="256" height="256"><rect width="256" height="256" rx="60" fill="#f0db4f"/><path d="M67.312 213.932l19.591-11.856c3.779 6.701 7.218 12.371 15.464 12.371 7.905 0 12.889-3.092 12.889-15.12v-81.798h24.058v82.138c0 24.917-14.606 36.259-35.916 36.259-19.245 0-30.416-9.967-36.087-21.996m85.07-2.576l19.588-11.341c5.157 8.421 11.859 14.607 23.715 14.607 9.969 0 16.325-4.984 16.325-11.858 0-8.248-6.53-11.17-17.528-15.98l-6.013-2.579c-17.357-7.388-28.871-16.668-28.871-36.258 0-18.044 13.748-31.792 35.229-31.792 15.294 0 26.292 5.328 34.196 19.247l-18.731 12.029c-4.125-7.389-8.591-10.31-15.465-10.31-7.046 0-11.514 4.468-11.514 10.31 0 7.217 4.468 10.139 14.778 14.608l6.014 2.577c20.449 8.765 31.963 17.699 31.963 37.804 0 21.654-17.012 33.51-39.867 33.51-22.339 0-36.774-10.654-43.819-24.574" fill="#323330"/></svg></g><g transform="translate(1800)"><svg width="256" height="256"><rect width="256" height="256" fill="#e14e1d" rx="60"/><path d="M48 38l8.61 96.593h110.71l-3.715 41.43-35.646 9.638-35.579-9.624-2.379-26.602H57.939l4.585 51.281 65.427 18.172 65.51-18.172 8.783-98.061H85.824l-2.923-32.71h122.14.098L208 38H48z" class="B"/><path d="M128 38H48l8.61 96.593H128v-31.938H85.824l-2.923-32.71H128V38zm0 147.647l-.041.014-35.579-9.624-2.379-26.602H57.939l4.585 51.281 65.427 18.172.049-.014v-33.227z" fill="#ebebeb"/></svg></g><g transform="translate(2100)"><svg width="256" height="256"><rect width="256" height="256" rx="60" fill="#0277bd"/><path d="M53.753 102.651l2.863 31.942h71.481v-31.942H53.753zM128.095 38h-.11H48l2.904 31.942h77.191V38zm0 180.841v-33.233l-.14.037-35.574-9.605-2.274-25.476H72.821 58.043l4.475 50.154 65.43 18.164.147-.041z" fill="#ebebeb"/><path d="M167.318 134.593l-3.708 41.426-35.625 9.616v33.231l65.483-18.148.48-5.397 7.506-84.092.779-8.578L208 38h-80.015v31.942h45.009l-2.906 32.709h-42.103v31.942h39.333z" class="B"/></svg></g><g transform="translate(2400)"><svg width="256" height="256"><rect width="256" height="256" rx="60" class="C"/><g clip-path="url(#C)"><path d="M203.801 178.21c-9.79-.272-17.385.731-23.75 3.409-1.833.736-4.774.736-5.016 3.043.98.968 1.098 2.552 1.957 3.894 1.467 2.435 4.041 5.715 6.365 7.417l7.834 5.598c4.774 2.917 10.16 4.622 14.811 7.542 2.694 1.704 5.386 3.894 8.08 5.721 1.372.973 2.203 2.558 3.918 3.163v-.368c-.856-1.091-1.103-2.672-1.956-3.894l-3.677-3.526c-3.547-4.744-7.957-8.884-12.731-12.287-3.918-2.677-12.484-6.326-14.076-10.825l-.241-.273c2.689-.272 5.872-1.219 8.445-1.949 4.165-1.091 7.957-.851 12.238-1.945l5.88-1.704v-1.091c-2.204-2.189-3.795-5.11-6.119-7.176-6.242-5.353-13.102-10.586-20.203-14.965-3.794-2.432-8.692-4.017-12.731-6.081-1.473-.731-3.918-1.096-4.774-2.312-2.209-2.672-3.43-6.204-5.021-9.369l-10.037-21.168c-2.203-4.745-3.553-9.49-6.242-13.869-12.611-20.683-26.324-33.212-47.38-45.502-4.527-2.555-9.913-3.654-15.64-4.99l-9.181-.491c-1.962-.851-3.918-3.163-5.633-4.259-6.977-4.379-24.974-13.868-30.119-1.363-3.306 7.908 4.898 15.693 7.683 19.709 2.085 2.798 4.774 5.961 6.248 9.124.823 2.067 1.098 4.259 1.956 6.449 1.956 5.353 3.795 11.316 6.366 16.306 1.372 2.555 2.812 5.235 4.527 7.545.979 1.363 2.694 1.947 3.059 4.136-1.715 2.435-1.833 6.081-2.812 9.127-4.409 13.748-2.694 30.78 3.548 40.902 1.962 3.04 6.585 9.734 12.858 7.177 5.51-2.19 4.28-9.124 5.872-15.208.37-1.458.123-2.432.856-3.408v.273l5.021 10.097c3.795 5.961 10.408 12.167 15.914 16.306 2.936 2.19 5.263 5.964 8.934 7.3v-.368h-.241c-.736-1.091-1.839-1.582-2.818-2.433-2.203-2.189-4.651-4.867-6.366-7.299-5.139-6.812-9.666-14.357-13.708-22.142-1.962-3.771-3.677-7.908-5.263-11.679-.741-1.461-.741-3.654-1.962-4.379-1.838 2.672-4.527 4.99-5.88 8.273-2.327 5.23-2.568 11.679-3.424 18.371-.494.122-.274 0-.494.272-3.913-.97-5.263-4.99-6.73-8.393-3.671-8.638-4.286-22.507-1.103-32.484.856-2.555 4.533-10.585 3.065-13.018-.741-2.312-3.183-3.648-4.533-5.475-1.591-2.312-3.301-5.23-4.404-7.785-2.936-6.817-4.404-14.357-7.589-21.171-1.474-3.163-4.042-6.449-6.124-9.367-2.327-3.286-4.892-5.598-6.73-9.489-.612-1.363-1.468-3.528-.488-4.99.241-.973.735-1.363 1.709-1.582 1.591-1.363 6.124.365 7.715 1.091 4.527 1.827 8.322 3.528 12.117 6.081 1.715 1.216 3.553 3.528 5.757 4.139h2.574c3.918.851 8.322.273 11.99 1.363 6.489 2.072 12.364 5.11 17.632 8.398 16.035 10.097 29.26 24.454 38.193 41.611 1.468 2.798 2.08 5.353 3.43 8.273 2.574 5.964 5.757 12.045 8.322 17.888 2.574 5.718 5.021 11.562 8.693 16.306 1.838 2.555 9.18 3.891 12.484 5.23 2.45 1.091 6.242 2.073 8.451 3.409 4.159 2.555 8.322 5.475 12.237 8.273 1.956 1.456 8.081 4.499 8.445 6.926l.014-.066zM78.958 72.487a19.57 19.57 0 0 0-5.016.608v.273h.242c.98 1.947 2.694 3.286 3.918 4.99l2.818 5.841.241-.273c1.715-1.216 2.574-3.163 2.574-6.081-.735-.851-.856-1.704-1.468-2.555-.735-1.216-2.327-1.827-3.309-2.798v-.005z" class="B D"/></g><defs><clipPath id="C"><path transform="translate(38 38)" d="M0 0h180v180H0z" class="B"/></clipPath></defs></svg></g><g transform="translate(2700)"><svg width="256" height="256"><rect width="256" height="256" fill="#023430" rx="60"/><path fill="#10aa50" d="M171.173 107.591c-10.537-46.481-32.497-58.855-38.099-67.602A99.4 99.4 0 0 1 126.949 28c-.296 4.129-.84 6.731-4.35 9.862-7.047 6.283-36.977 30.673-39.496 83.486-2.347 49.242 36.2 79.605 41.292 82.744 3.916 1.927 8.685.041 11.012-1.728 18.581-12.752 43.969-46.75 35.786-94.773"/><path fill="#b8c4c2" d="M128.545 177.871c-.97 12.188-1.665 19.27-4.129 26.235A590.39 590.39 0 0 0 127.169 228h4.019c.959-8.655 2.422-17.247 4.384-25.732-5.203-2.56-6.827-13.702-7.027-24.397z"/><path fill="#12924f" d="M135.565 202.275c-5.258-2.429-6.779-13.806-7.013-24.404 1.3-17.483 1.679-35.022 1.136-52.545-.276-9.194.13-85.158-2.265-96.28 1.639 3.767 3.526 7.42 5.651 10.936 5.602 8.754 27.569 21.128 38.099 67.609 8.203 47.941-17.047 81.849-35.608 94.684z"/></svg></g><g transform="translate(3000)"><svg width="256" height="256"><rect width="256" height="256" rx="60" fill="#092e20"/><path d="M112.689 51h28.615v132.45c-14.679 2.787-25.456 3.902-37.161 3.902C69.209 187.351 51 171.559 51 141.271c0-29.173 19.325-48.124 49.24-48.124 4.645 0 8.175.37 12.449 1.485V51zm0 66.671c-3.344-1.113-6.131-1.485-9.661-1.485-14.493 0-22.856 8.919-22.856 24.526 0 15.238 7.99 23.599 22.67 23.599 3.157 0 5.76-.186 9.847-.742v-45.898zm74.137-22.482v66.333c0 22.856-1.672 33.818-6.689 43.295-4.646 9.106-10.778 14.865-23.413 21.183l-26.571-12.636c12.635-5.945 18.767-11.146 22.668-19.139 4.089-8.175 5.391-17.652 5.391-42.55V95.189h28.614zm-28.614-44.037h28.614V80.51h-28.614V51.152z" class="B"/></svg></g><g transform="translate(3300)"><svg width="256" height="256"><rect width="256" height="256" rx="60" class="C"/><path fill="#00d8ff" d="M128.001 146.951a18.66 18.66 0 0 0 18.656-18.656 18.66 18.66 0 0 0-18.656-18.656 18.66 18.66 0 0 0-18.656 18.656 18.66 18.66 0 0 0 18.656 18.656z"/><g stroke="#00d8ff" stroke-width="8.911"><path d="M128.002 90.363c25.048 0 48.317 3.594 65.862 9.634C215.003 107.275 228 118.306 228 128.295c0 10.409-13.774 22.128-36.475 29.649-17.162 5.686-39.746 8.654-63.523 8.654-24.378 0-47.463-2.786-64.819-8.717C41.226 150.376 28 138.506 28 128.295c0-9.908 12.41-20.854 33.252-28.12 17.61-6.14 41.454-9.812 66.747-9.812h.004z"/><path d="M94.981 109.438c12.514-21.698 27.251-40.06 41.249-52.241 16.864-14.676 32.914-20.424 41.566-15.435 9.017 5.2 12.288 22.987 7.463 46.409-3.645 17.708-12.359 38.754-24.238 59.352-12.179 21.118-26.124 39.724-39.931 51.792-17.471 15.272-34.362 20.799-43.207 15.698-8.583-4.946-11.865-21.167-7.748-42.852 3.479-18.323 12.21-40.812 24.841-62.723h.004z"/><path d="M95.012 147.578c-12.549-21.674-21.093-43.616-24.659-61.826-4.293-21.941-1.258-38.716 7.387-43.72 9.008-5.215 26.052.834 43.934 16.712 13.52 12.004 27.403 30.062 39.316 50.639 12.214 21.098 21.368 42.473 24.929 60.461 4.506 22.764.859 40.157-7.978 45.272-8.574 4.964-24.265-.291-40.996-14.689-14.136-12.164-29.26-30.959-41.933-52.849z"/></g></svg></g><g transform="translate(3600)"><svg width="256" height="256"><rect width="256" height="256" rx="60" class="C"/><path d="M89.778 193.926c-7.238-5.693-14.959-11.151-20.235-18.837-11.102-13.554-19.65-29.247-25.493-45.737-3.532-10.724-4.742-22.22-9.295-32.529-4.763-7.487.816-15.672 9.018-18.052 3.651-.701 10.072-4.145 2.322-1.683-6.948 5.098-7.621-4.627-.496-5.243 4.862-.646 6.652-4.627 4.99-8.21-5.219-3.404 12.657-7.145 3.662-12.223-9.37-10.109 13.106-12.055 7.561-.574-1.327 8.828 15.705-1.618 11.753 8.577 4.017 4.896 15.042 1.114 14.768 7.983 5.851.402 7.86 5.326 13.353 5.704 5.693 2.571 16.013 4.597 17.95 11.012-5.648 4.472-18.726-9.236-19.355 3.141 1.706 18.285 1.272 37.121 7.962 54.533 3.164 10.543 10.835 18.843 17.762 27.054 6.629 8.042 15.607 13.704 24.758 18.471 8.028 3.786 16.682 6.297 25.431 7.872 3.548-2.714 9.813-12.804 15.349-8.549.262 4.781-10.987 9.994-.53 9.465 6.141-1.852 10.4 4.75 15.457-1.205 4.659 5.518 19.364-3.526 16.049 7.754-4.482 2.892-11.02 1.144-15.509 5.122-7.403-3.697-13.296 3.309-21.491 2.423-9.101 1.63-18.36 2.288-27.587 2.302-15.137-1.196-30.595-1.7-44.995-6.97-8.112-2.357-16.029-6.977-23.158-11.598h0zm12.784 5.539c7.921 3.426 15.667 7.036 24.348 8.125 13.773 1.916 27.996 4.862 41.818 2.175-6.256-2.825-12.723 1.1-18.956-2.02-7.474 1.608-15.496-.41-23.094-1.404-8.642-3.849-17.967-6.495-26.059-11.492-10.112-3.693 5.229 4.737 7.96 5.419 6.321 3.588-6.951-1.839-8.822-3.33-5.294-2.97-5.969-2.349-.524.667 1.096.641 2.18 1.314 3.329 1.86h0zm-15.073-10.652c7.676 2.844-.034-5.397-3.551-4.919-1.558-2.703-5.954-4.411-2.853-5.864-5.578 1.937-5.843-7.363-8.464-6.034-5.9-1.863-2.296-8.464-9.325-12.517-.642-4.271-6.983-7.975-9.006-14.417-.893-3.298-7.165-12.77-3.312-3.955 3.28 8.486 9.051 15.753 13.854 23.011 3.729 6.911 8.133 14.134 14.925 18.446 2.29 2.196 4.5 5.561 7.733 6.249zm-22.113-24.278c.268-1.159 1.404 2.509 0 0h0zm31.305 27.687c1.7-.761-2.444-.959 0 0h0zm4.167 1.52c-.432-2.099-1.903 1.173 0 0h0zm5.215 2.175c2.483-2.364-3.827-1.49 0 0h0zm8.94 4.983c1.509-2.231-4.83-.842 0 0h0zm-17.166-11.967c3.856-2.495-4.981-.034 0 0h0zm3.912 1.951c-.109-1.319-1.394.591 0 0h0zm19.556 12.206c3.143 1.984 18.357 4.348 8.831.813-1.594.336-17.665-4.545-8.831-.813zm-31.045-24.179c-.306-1.323-4.88-1.46 0 0h0zm9.104 5.306c2.369-1.652-4.917-1.275 0 0h0zm7.657 4.695c3.4-1.282-5.515-1.288 0 0h0zm-20.466-14.035c3.689 2.829 14.877.362 5.649-1.689-4.2-2.239-13.665-3.771-7.213 1.35l1.564.339h0zm25.653 15.656c1.536-2.618-6.444-1.495 0 0h0zm-7.795-6.195c9.02 2.552-7.585-5.704-2.226-.939l1.188.538 1.038.401h0zm15.628 9.033c8.543.082-7.716-1.178 0 0h0zM83.27 169.934c-.334-1.591-2.108.134 0 0h0zm51.223 31.543c.228-2.874-2.787 2.138 0 0h0zm-36.644-22.615c-.517-1.513-2.669-.062 0 0h0zm-13.768-9.926c4.904-.295-6.714-2.161 0 0h0zm-16.31-10.543c-.61-2.351-5.337-4.226 0 0h0zm42.819 27.174c-.899-1.025-.423.224 0 0h0zm26.651 16.355c-.085-1.566-1.451.592 0 0h0zm-29.01-18.791c.48-2.017-4.182-.611 0 0h0zm-19.855-12.583c3.649-.391-5.845-2.467 0 0h0zm33.586 20.87c5.686-2.253-5.541-1.1 0 0h0zm-17.47-11.859c6.553.845-7.797-4.457-1.438-.475l1.438.475h0 0zm22.774 14.003c6.118-3.658 4.101 8.564 10.38 1.032 6.193-4.522-5.349 5.591 2.284.807 5.52-3.692 13.673 1.75 18.824 3.525 3.704-.182 7.304 3.203 11.102 1.144 7.309-1.969-14.294-2.92-8.631-6.413-6.689 1.946-11.63-2.321-14.921-6.605-7.503-1.733-16.177-5.568-19.921-12.207-1.527-2.493 2.205.351-1.318-3.724-4.521-4.021-6.778-8.585-9.813-13.473-3.626-1.934-4.048-7.627-4.414-.191.028-4.693-4.378-7.852-5.453-6.539-.019-4.519 4.715-2.254 1.401-5.598-.713-4.684-3.062-9.566-3.768-14.855-1.097-2.549-.155-8.009-3.744-2.238-1.308 6.1-.434-7.495 1.599-3.012 2.67-4.575-.958-4.037-1.106-3.402 1.738-3.859 1.1-9.334-.454-7.246.926-4.091 1.464-15.055-1.387-13.112 1.728-4.278 3.277-19.575-4.224-13.743-3.04.043-8.304 1.103-10.792 2.341 7.802 4.301-.785 1.553-3.961.87-.414 3.979-3.559 2.258-7.489 2.297 6.277.777-3.057 6.42-6.657 4.228-4.677 2.235 4.036 7.814.094 9.539.485 2.601-7.164-.939-6.564 5.067-4.54-1.91-.625 7.124 1.646 4.069 7.722 2.09 5.436 6.854 5.633 11.38-1.258 2.638-6.212-6.199-1.103-5.789-4.03-6.547-4.458-2.367-7.807.675-.779.22 8.542 4.327 2.693 6.358 5.146.794 5.293 5.297 6.341 8.147 3.093 3.222 2.46-3.557 6.161.314-2.342-3.449-12.406-9.719-4.303-7.708-.043-3.472-1.466-6.271 1.017-6.203 2.458-4.452-2.575 10.977 2.967 5.319 1.534-.67 1.914-4.458 4.671.357 4.005 3.94 1.446 6.795-4.203 3.187 1.011 3.429 7.557 4.654 6.327 10.016 1.304 4.715 3.129 2.979 4.719 2.706 1.248 4.582 1.956 1.213 2.015-.968 5.712 1.223 4.374 4.6 6.162 6.959 3.936 1.777-5.634-12.044 1.124-4.156 7.11 6.42 2.667 9.1-3.714 8.071 4.038-.326 5.341 5.46 10.392 5.257 4.606 2.191 7.725 10.608-.215 7.104-2.754-2.483-12.499-5.546-4.54-.823 7.352 3.404 13.191 5.441 20.281 9.714 5.074 3.623 7.266 7.772 9.19 8.593-4.265 2.037-12.853-1.626-6.476-2.749-3.977-.724-8.451-2.736-4.641 2.22 3.239 2.705 11.477 2.418 12.954 2.724-1.252 2.759-3.4 2.978.051 3.192-3.85 2.052 1.234 2.369 1.591 3.542h0zm-7.873-22.234c-2.343-2.45-2.948-7.039-.416-3.046 1.298.521 4.16 7.498.416 3.046h0zm25.641 16.287c1.461-.095.042 1.11 0 0h0zm-29.34-22.294c-.09-3.704.847 2.856 0 0h0zm-2.548-3.429c-2.947-5.693 3.714 1.612 0 0h0zm-30.883-21.315c1.731-.462.852 2.961 0 0h0zm24.579 13.322c1.063-3.992 1.249 3.35 0 0h0zm-17.364-12.073c-1.224-2.203 2.56 2.066 0 0h0zm14.902 4.777c-2.792-6.255 1.976-3.417.617 1.025l-.617-1.025zm-25.699-17.139c-1.248-2.051-3.312-8.072-2.648-9.91.601 2.993 6.365 12.881 2.827 4.096-3.91-7.364 4.673 2.391 5.556 4.227.411 1.828-2.412-.499-.499 3.786-3.489-4.878-2.059 2.694-5.237-2.199h0zm-7.942-5.472c.327-4.771 1.818 3.271 0 0h0zm3.573 1.229c1.705-3.6 2.891 5.02 0 0h0zm-8.594-6.648c-2.957-2.938-5.097-5.646.138-1.823 2.017.079-4.482-6.16.486-1.981 5.223.952 2.579 8.564-.624 3.804zm4.514-.118c1.717-1.701.912 1.676 0 0h0zm2.778.891c-2.603-4.88 3.16 2.046 0 0h0zm-5.522-5.277c-8.596-7.65 10.801 4 1.404 1.418l-1.404-1.418h0 0zm24.629 14.31c-3.72-2.23-.986-15.702.283-6.488 3.616-1.17-.2 4.758 2.498 4.703-.425 3.74-1.632 5.085-2.78 1.785zm9.109 5.384c.365-4.06.768 2.776 0 0h0zm-1.582-1.564c.41-1.734.042 2.043 0 0h0zm-30.47-20.644c-5.522-7.619 16.049 7.707 3.537 1.933-1.308-.342-2.881-.464-3.537-1.933zm17.542 9.301c-.523-6.415 1.167 1.063 0 0h0zm13.319 8.544c1.03-3.655.077 2.417 0 0h0zm-30.015-20.753c3.282-.702 13.602 5.765 4.125 1.847-1.053-1.165-3.298-.636-4.125-1.847zm28.185 14.048c.351-6.56 1.959-3.919.012.939l-.012-.939h0 0zm-25.742-16.33c1.337-1.962-3.55-8.869.704-2.478 1.838 1.461 5.323 2.447 2.246 3.062 4.838 4.268-1.18 1.156-2.951-.584h0zm24.348 14.281c.924-7.473.815 4.378 0 0h0zM69.668 99.463c1.021-.436.539 1.361 0 0h0zm6.351 3.78c1.634-3.43 3.015 3.825 0 0h0zm17.914 9.965c-.017-1.317.338 1.916 0 0h0zm-1.038-2.297c-2.486-6.134 2.313 3.248 0 0h0zm-1.527-4.022c-.417-2.535 1.418 3.184 0 0h0zm2.485-4.039c-1.706-3.007 2.155-13.25 2.585-6.897-1.801 4.95-.519 7.719.737 1.08 2.32-5.225-.501 10.311-3.322 5.817h0 0zm2.553-15.234c.744-.913.165 1.1 0 0h0zm-4.264 84.022c-1.011-.883.127.562 0 0h0zm8.784 4.444c4.886 1.253 4.861-.761.445-1.359-2.375-2.21-9.87-4.553-3.162-.274.444 1.125 1.848 1.099 2.717 1.633h0zm-17.348-11.523c2.692 2.007 10.139 5.689 3.835.764 2.126-2.47-4.068-3.784-2.014-5.436-5.226-3.198-4.123-2.914-.461-2.813-6.281-2.808.907-2.598.568-4.036-2.422-.479-12.03-4.271-6.378.311-5.746-2.929-1.369 1.092-3.106.667-5.876-1.603 5.233 4.474-.933 2.966 3.371 2.671 9.073 6.842 1.425 2.827-1.008 1.45 5.473 3.649 7.064 4.75zm9.187 5.278c11.171 3.599-5.477-4.398 0 0h0zm47.029 28.49c.144-2.216-1.526 1.891 0 0h0zm4.834 2.035c2.577-2.498.105 3.978 4.271-.612.045-3.285-.129-5.226-4.787-1.235-1.284.712-1.857 3.74.516 1.847h0zm-76.73-48.188c-.791-3.112-5.548-3.096 0 0h0zm5.161 3.382c-1.917-3.178-6.839-2.877 0 0h0zm29.364 17.709c2.867 2.546 13.168 1.868 3.483.313-1.435-2.121-9.109-1.61-3.483-.313zm40.367 24.929c4.412-3.702-4.276 1.652 0 0h0zm9.176 6.306c.028-1.188-1.901.521 0 0h0zm.015-1.663c4.886-5.177-4.735.306 0 0h0zm-96.778-61.292c-4.165-5.942-2.589-8.613-6.605-13.464-.76-3.71-6.89-12.13-3.17-3.21 3.407 5.216 4.419 13.293 9.775 16.674h0zm95.245 59.646c8.989-5.81-3.69-2.531 0 0h0zm6.862 2.689c4.502-3.866-2.847-.809 0 0h0zm-90.942-58.274c1.288-1.917-3.327-.246 0 0h0zm89.509 56.438c4.359-2.81-1.004-2.379-.79.259l.79-.259h0zM96.725 164.76c-.15-1.898-2.302.161 0 0h0zm3.656 2.103c-1.162-2.349-1.786.369 0 0h0zm62.491 37.08c5.584-4.028-3.385-.771-1.172.763l1.172-.763zm-2.138-1.033c4.549-3.812-4.803 1.689 0 0h0zm10.925 7.275c3.054-2.045-3.711-.662 0 0h0zM69.17 144.223c4.094.918 16.361 10.083 9.124.634-3.706-1.097-1.483-10.157-5.264-8.553 2.537 4.239 2.088 6.043-3.24 3.371-6.696-3.269-3.763 1.619-2.454 2.967-1.783.405 2.359 1.547 1.834 1.581h0zm-18.652-14.73c.733-3.031-6.749-16.677-3.533-6.837 1.161 2.061 1.043 5.967 3.533 6.837zm34.235 21.106c-2.108-1.763-.1-.249 0 0h0zm5.191 1.209c-.003-3.212-5.738-1.304 0 0h0zm44.987 28.36c-.858-2.194-3.392-.051 0 0h0zm2.16 1.578c-.319-1.228-1.246.237 0 0h0zm17.831 11.231c1.715-1.267-2.14-.161 0 0h0zm-95.087-61.105c4.905-1.9-5.256-1.355 0 0h0zm71.135 44.816c-.054-3.176-3.127.787 0 0h0zm-73.073-49.333c3.151-1.064-2.915-.701 0 0h0zm9.146 4.431c-.057-1.044-.967.395 0 0h0zm111.551 68.404c4.052-.821 13.285 2.062 14.778-1.074-4.921-.12-17.024-3.472-17.597.8l1.078.169 1.741.105h0zM69.949 132.518c.07-3.218-2.509-.12 0 0h0zm-24.046-16.68c-1.092-6.132-4.154-.928 0 0h0zm5.734 1.441c.07-1.969-5.248-1.772 0 0h0zm3.277 1.609c-.947-.767-.741.97 0 0h0zm20.619 13.227c.971-.891-2.298-.66 0 0h0zm-22.802-16.856c-.554-4.631-6.641-.694 0 0h0zm-11.756-7.628c-.167-2.138-1.146.806 0 0h0zm1.749-1.321c-.285-2.534-1.501.322 0 0h0zm9.662 5.767c4.086-1.605-7.442-3.319-.835-.303l.835.303zm129.308 79.872c2.615-2.397-3.323-.741 0 0h0zm15.622 8.098c1.048-3.1-2.639.408 0 0h0zM53.373 107.013c.43-2.998-3.239.595 0 0h0zm-13.746-9.21c-.739-4.233-.638-11.664 6.426-9.153-9.428 1.872 6.526 11.719 4.511 3.944 3.965.194 7.755-2.343 5.675 1.507 7.811-.863 13.227-7.636 20.772-6.687 5.877-.778 12.303-1.368 18.636-3.733 5.207-.375 10.22-5.982 7.366-9.305-7.101-.601-14.535.288-22.384 1.848-8.697 1.808-16.598 5.243-25.373 6.718-8.554 1.149 1.72 3.166-.73 3.615-4.463 1.549 5.323 2.593-.579 4.226-3.645-.693-7.438-1.945-5.882-5.786-8.194 1.063-15.394 4.464-8.92 12.802l.481.004h0 0zM59.37 87.748c1.921-7.077 10.293 5.824 3.149.94-.853-.639-2.257-1.16-3.149-.94zm.374-3.431c2.773-2.066 1.474 1.158 0 0h0zm3.521.056c.25-3.257 8.06 1.724 1.288 1.172l-1.288-1.172zm4.816-1.936c1.759-2.055.505 1.828 0 0h0zm1.232-.825c2.928-3.519 16.584-2.246 6.589-.343-2.679-2.017-4.733 1.189-6.589.343zm17.821-2.747c-.446-9.612 8.854 3.416 0 0h0zm5.057-.028c1.849-4.844 7.174-1.944.856-.973.137.516-.185 2.501-.856.973zm-40.812 25.691c5.524-3.383-5.864-2.935 0 0h0zm4.084 1.134c1.937-2.059-4.208-.835 0 0h0zm-12.034-8.54c3.156-2.425-3.735-.922 0 0h0zm163.107 102.04c.092-2.813-2.412 1.267 0 0h0zm-16.573-11.311c.471-3.238-2.13.283 0 0h0zm21.131 12.401c4.413.015 13.371-1.37 3.769-1.366-1.507.235-8.779.185-3.769 1.366h0 0zM59.056 103.676c3.571-.245 5.588-3.939-.691-3.727-9.731-1.007 8.585 3.332-1.248 2.091-1.321.875 1.862 1.878 1.939 1.636zm3.145 1.592c-.373-2.293-1.104 1.219 0 0h0zm3.731-9.949c1.55-1.922-2.145-.514 0 0h0zM54.055 75.465c6.374-2.168 15.09-4.605 18.1 1.068-3.063-3.686-1.236-7.315 1.657-1.926 4.091 5.453 6.139-2.48 3.478-4.309 3.032 3.767 6.481 5.547 2.03.238 4.836-5.818-9.684.762-12.984.695-1.588.713-16.394 3.776-12.281 4.234h0zm3.736-7.154c3.635-2.744 12.572 1.632 6.837-2.727-.561-.495-12.56 3.305-6.837 2.727h0zm13.253.547c4.254.109-1.835-5.715 3.235-3.076-.833-2.72-5.903-3.229-8.381-4.316-1.402 2.487 2.854 7.426 5.147 7.392zm-10.929-12.03c1.472-1.995-2.58 1.012 0 0h0zm5.417 1.297c6.856-.909-1.748-2.953-1.382-.073l1.382.073h0 0zm-10.114-7.914c-4.827-6.302 9.079 1.059 4.174-5.539-4.128-3.287-8.095 3.699-4.174 5.539zm61.952 33.369c2.214-3.925-9.141-5.291-1.492-1.391.705.235.545 1.663 1.492 1.391z" class="B"/></svg></g><g transform="translate(3900)"><svg width="256" height="256"><rect width="256" height="256" fill="#f03c2e" rx="60"/><g clip-path="url(#D)"><path d="M224.225 119.094l-87.319-87.319a12.87 12.87 0 0 0-4.177-2.793 12.88 12.88 0 0 0-9.858 0 12.87 12.87 0 0 0-4.177 2.793L100.569 49.9l23 23c5.35-1.875 11.475-.594 15.737 3.669 2.029 2.033 3.446 4.595 4.088 7.394a15.31 15.31 0 0 1-.457 8.437l22.169 22.169c5.363-1.85 11.55-.657 15.831 3.637a15.32 15.32 0 0 1 3.323 4.974c.77 1.86 1.166 3.853 1.166 5.866s-.397 4.006-1.168 5.866-1.9 3.549-3.324 4.972-3.113 2.552-4.973 3.322-3.853 1.167-5.866 1.166a15.33 15.33 0 0 1-5.866-1.167c-1.86-.771-3.55-1.9-4.973-3.324-4.5-4.5-5.612-11.125-3.337-16.669l-20.675-20.675v54.407c1.501.742 2.872 1.722 4.062 2.9 1.423 1.423 2.552 3.112 3.323 4.972s1.166 3.852 1.166 5.865-.396 4.006-1.166 5.865a15.34 15.34 0 0 1-3.323 4.973c-1.423 1.423-3.113 2.552-4.972 3.322s-3.853 1.167-5.865 1.167-4.006-.397-5.865-1.167a15.32 15.32 0 0 1-8.299-8.293c-.772-1.86-1.169-3.854-1.169-5.867a15.3 15.3 0 0 1 1.169-5.866c.771-1.86 1.901-3.549 3.326-4.971 1.481-1.475 3.125-2.594 5.019-3.344v-54.913c-1.825-.75-3.538-1.856-5.019-3.343-2.152-2.149-3.615-4.891-4.203-7.875a15.32 15.32 0 0 1 .903-8.881L91.644 58.813l-59.875 59.813a12.88 12.88 0 0 0-2.795 4.179 12.87 12.87 0 0 0-.982 4.93c0 1.692.334 3.368.982 4.931a12.88 12.88 0 0 0 2.795 4.179l87.325 87.312c1.195 1.196 2.615 2.145 4.177 2.793a12.89 12.89 0 0 0 9.858 0c1.562-.648 2.982-1.597 4.177-2.793l86.919-86.781a12.88 12.88 0 0 0 2.795-4.179 12.87 12.87 0 0 0 .981-4.93c0-1.692-.333-3.368-.981-4.931a12.88 12.88 0 0 0-2.795-4.179" class="B"/></g><defs><clipPath id="D"><path transform="translate(28 28)" d="M0 0h200v200H0z" class="B"/></clipPath></defs></svg></g><g transform="translate(4200)"><svg width="256" height="256"><rect width="256" height="256" fill="#2396ed" rx="60"/><path d="M141.187 122.123h20.717v-18.744h-20.717v18.744zm-24.662 0h20.716v-18.744h-20.716v18.744zm-24.17 0h20.717v-18.744H92.355v18.744zm-24.169 0h20.223v-18.744H68.186v18.744zm-24.663 0H64.24v-18.744H43.523v18.744zm24.663-22.69h20.223V80.69H68.186v18.744zm24.17 0h20.717V80.69H92.355v18.744zm24.17 0h20.716V80.69h-20.716v18.744zm0-22.69h20.716V58h-20.716v18.744zM228 113.738s-8.879-8.386-27.129-5.426c-1.973-14.305-17.264-22.69-17.264-22.69s-14.304 17.264-3.946 36.501c-2.959 1.48-7.892 3.453-15.291 3.453H28.726c-2.466 9.372-2.466 71.521 65.603 71.521 48.832 0 85.333-22.689 102.597-64.123C222.574 134.948 228 113.738 228 113.738z" class="B"/></svg></g><g transform="translate(0 300)"><svg width="256" height="256"><rect width="256" height="256" rx="60" class="C"/><g class="D"><path d="M36.407 203.248a8.25 8.25 0 0 1-3.665-.738 8.24 8.24 0 0 1-2.962-2.283 8.81 8.81 0 0 1-1.609-3.584c-.26-1.301-.222-2.644.109-3.928L58.252 61.787c.666-2.714 2.197-5.137 4.364-6.902s4.848-2.777 7.641-2.881h149.338a8.26 8.26 0 0 1 6.627 3.021c.799 1.059 1.349 2.284 1.608 3.585s.223 2.643-.108 3.928l-29.993 130.935c-.666 2.714-2.198 5.137-4.364 6.902s-4.848 2.777-7.641 2.881H36.407v-.007z" fill="url(#E)"/><path d="M70.256 53.686h149.338c1.046-.043 2.087.167 3.034.611a6.52 6.52 0 0 1 3.654 4.777 6.52 6.52 0 0 1-.204 3.089l-29.993 130.928a11.25 11.25 0 0 1-3.783 5.948c-1.865 1.526-4.172 2.412-6.579 2.528H36.406a6.51 6.51 0 0 1-5.445-2.553 6.52 6.52 0 0 1-1.243-2.835c-.181-1.031-.111-2.09.204-3.088L59.915 62.163a11.24 11.24 0 0 1 10.341-8.477h0z" fill="url(#F)"/><path d="M128.286 167.219h36.32c2.057.087 4.001.966 5.426 2.452s2.221 3.466 2.221 5.525-.796 4.038-2.221 5.525a7.98 7.98 0 0 1-5.426 2.452h-36.32c-2.057-.087-4.001-.966-5.426-2.452s-2.221-3.466-2.221-5.525.796-4.038 2.221-5.525a7.98 7.98 0 0 1 5.426-2.452h0zm23.56-35.463c-1.04 1.749-2.488 3.219-4.221 4.285l-67.406 48.382a8.74 8.74 0 0 1-10.269-14.118l60.786-44.019v-.9L92.545 84.781a8.74 8.74 0 0 1 12.725-11.94l45.833 48.753a8.33 8.33 0 0 1 2.107 4.955c.134 1.839-.346 3.67-1.364 5.207z" fill="#2c5591"/><path d="M150.138 130.071a12.5 12.5 0 0 1-4.213 4.285L78.54 182.745a8.75 8.75 0 0 1-6.327 1.215 8.74 8.74 0 0 1-5.443-3.447 8.75 8.75 0 0 1 1.494-11.887l60.793-44.018v-.907L90.866 83.074a8.74 8.74 0 0 1 12.733-11.94l45.825 48.753c1.237 1.375 1.979 3.124 2.108 4.969a8.3 8.3 0 0 1-1.394 5.215h0zm-22.851 36.207h36.32c2.006 0 3.929.797 5.348 2.215a7.56 7.56 0 0 1 2.215 5.347c0 2.005-.797 3.93-2.215 5.348s-3.342 2.215-5.348 2.215h-36.32c-2.006 0-3.93-.797-5.348-2.215s-2.215-3.342-2.215-5.348a7.56 7.56 0 0 1 2.215-5.347c1.418-1.418 3.342-2.215 5.348-2.215h0z" class="B"/></g><defs><linearGradient id="E" x1="180.31" y1="174.355" x2="65.586" y2="71.878" xlink:href="#L"><stop stop-color="#5391fe"/><stop offset="1" stop-color="#3e6dbf"/></linearGradient><linearGradient id="F" x1="64.443" y1="70.511" x2="177.996" y2="172.56" xlink:href="#L"><stop stop-color="#5391fe"/><stop offset="1" stop-color="#3e6dbf"/></linearGradient></defs></svg></g><g transform="translate(300 300)"><svg width="256" height="256"><rect width="256" height="256" rx="60" class="C"/><path fill="#2489ca" d="M33.716 100.208s-4.734-3.413.947-7.97l13.237-11.836s3.788-3.985 7.792-.513l122.149 92.479v44.346s-.059 6.964-8.996 6.194l-135.128-122.7z"/><path fill="#1070b3" d="M65.2 128.792l-31.484 28.623s-3.235 2.407 0 6.708l14.618 13.295s3.472 3.729 8.601-.513l33.378-25.309L65.2 128.792z"/><path fill="#0877b9" d="M120.474 129.029l57.741-44.09-.375-44.109s-2.466-9.627-10.692-4.616l-76.836 69.931 30.162 22.884z"/><path fill="#3c99d4" d="M168.844 222.968c3.354 3.432 7.418 2.308 7.418 2.308l44.997-22.173c5.76-3.926 4.951-8.798 4.951-8.798V61.898c0-5.819-5.958-7.832-5.958-7.832l-38.999-18.8c-8.522-5.267-14.105.947-14.105.947s7.18-5.168 10.692 4.616v175.075c0 1.204-.257 2.387-.769 3.453-1.026 2.071-3.255 4.004-8.601 3.195l.374.415z"/></svg></g><g transform="translate(600 300)"><svg width="256" height="256"><rect width="256" height="256" rx="60" class="C"/><path fill="url(#G)" d="M78.571 184l-48.286-38.286 24-44.571L123.143 128l-44.572 56z"/><path fill="url(#H)" d="M228 81.429l-3.714 115.715L147.429 228l-46.286-29.714L168.857 128l-29.714-64.857 26.571-32L228 81.429z"/><path fill="url(#I)" d="M228 81.429l-60.857 72.001-28-90.286 26.571-32L228 81.429z"/><path fill="url(#J)" d="M124.286 194L44 223.143 56.857 178l16.857-55.429L28 107.143 56.857 28l62.857 7.714 61.715 70.572L124.286 194z"/><path fill="#000" d="M190.571 66.572H67.143V190h123.428V66.572z"/><path d="M124.857 166.857H78.571v7.714h46.286v-7.714zM112 92v-9.429H86.286V92h7.429v32.286h-7.429v9.428H112v-9.428h-7.143V92H112zm24.571 42.572c-4 0-7.428-.858-10-2.286s-4.857-3.429-6.571-5.429l7.143-8c1.428 1.715 2.857 2.857 4.286 3.715s3.142 1.428 4.857 1.428c2 0 3.714-.571 5.143-2 1.142-1.428 1.714-3.428 1.714-6.571V82.572h11.428V116c0 3.143-.285 5.714-1.142 8s-2 4-3.715 5.714c-1.428 1.429-3.428 2.858-5.714 3.429-2.286.857-4.571 1.429-7.429 1.429z" class="B"/><defs><linearGradient id="G" x1="30.256" x2="123.192" y1="142.541" y2="142.541" xlink:href="#L"><stop offset=".258" stop-color="#f97a12"/><stop offset=".459" stop-color="#b07b58"/><stop offset=".724" stop-color="#577bae"/><stop offset=".91" stop-color="#1e7ce5"/><stop offset="1" stop-color="#087cfa"/></linearGradient><linearGradient id="H" x1="101.621" x2="254.926" y1="99.086" y2="183.914" xlink:href="#L"><stop stop-color="#f97a12"/><stop offset=".072" stop-color="#cb7a3e"/><stop offset=".154" stop-color="#9e7b6a"/><stop offset=".242" stop-color="#757b91"/><stop offset=".334" stop-color="#537bb1"/><stop offset=".432" stop-color="#387ccc"/><stop offset=".538" stop-color="#237ce0"/><stop offset=".655" stop-color="#147cef"/><stop offset=".792" stop-color="#0b7cf7"/><stop offset="1" stop-color="#087cfa"/></linearGradient><linearGradient id="I" x1="208.651" x2="165.972" y1="150.615" y2="23.088" xlink:href="#L"><stop stop-color="#fe315d"/><stop offset=".078" stop-color="#cb417e"/><stop offset=".16" stop-color="#9e4e9b"/><stop offset=".247" stop-color="#755bb4"/><stop offset=".339" stop-color="#5365ca"/><stop offset=".436" stop-color="#386ddb"/><stop offset=".541" stop-color="#2374e9"/><stop offset=".658" stop-color="#1478f3"/><stop offset=".794" stop-color="#0b7bf8"/><stop offset="1" stop-color="#087cfa"/></linearGradient><linearGradient id="J" x1="58.63" x2="186.639" y1="75.066" y2="286.8" xlink:href="#L"><stop stop-color="#fe315d"/><stop offset=".04" stop-color="#f63462"/><stop offset=".104" stop-color="#df3a71"/><stop offset=".167" stop-color="#c24383"/><stop offset=".291" stop-color="#ad4a91"/><stop offset=".55" stop-color="#755bb4"/><stop offset=".917" stop-color="#1d76ed"/><stop offset="1" stop-color="#087cfa"/></linearGradient></defs></svg></g><g transform="translate(900 300)"><svg width="256" height="256"><rect width="256" height="256" rx="60" class="C"/><path fill="#019833" d="M135.498 39.462c-7.422-7.432-19.466-7.432-26.888 0l-75.202 75.303c-7.408 7.418-7.408 19.434 0 26.852l74.778 74.878c7.422 7.432 19.466 7.432 26.888 0l75.202-75.304c7.408-7.418 7.408-19.434 0-26.852l-74.778-74.877z"/><path d="M161.769 40.71l-2.686 2.688v9.871l2.352 2.354h12.425v9.537l-82.188 83.415V55.743h13.659l2.802-2.806v-9.988l-2.587-2.002H33.667l-2.351 2.354v10.204l2.391 2.394h12.502v160.417a12.14 12.14 0 0 0 10.431 12.019h0c3.849.548 7.728-.782 10.432-3.576L235 51.247V43.4l-2.685-2.688-70.546-.001z" class="B"/></svg></g><g transform="translate(1200 300)"><svg width="256" height="256"><rect width="256" height="256" rx="60" class="C"/><path fill="#eceff1" d="M85.949 199.926l24.531 13.62h37.096l34.702-26.055 15.556-40.859-35.899-43.227-10.171-24.278-49.66 1.776.598 13.62-9.573 17.764-14.958 29.016-2.992 24.278 10.77 34.345z"/><path fill="#263238" d="M187.064 114.656c-9.573-13.62-17.351-21.91-21.539-39.082s1.197-12.435-2.393-27.239c-1.795-7.698-4.787-13.027-7.778-17.172-3.59-4.145-7.778-6.514-10.172-7.106-5.384-2.961-17.949-7.698-33.505.592-16.155 8.29-14.36 26.055-11.368 62.176 0 2.369-.599 5.329-1.795 7.698-2.393 5.329-6.582 10.066-10.171 14.212-4.188 5.921-8.376 11.843-11.368 18.356-7.18 13.62-13.761 30.792-11.966 37.306 2.992-.592 40.686 56.255 40.686 57.439 2.393-.592 12.564-.592 21.539-.592 12.565-.592 19.744-1.184 29.916 1.184 0-1.776-.599-3.553-.599-5.329 0-3.553.599-6.514 1.197-10.659l1.795-9.474c-5.983 5.329-16.753 11.251-26.924 13.027-8.975 1.776-23.933-1.184-31.113-10.067.599 0 1.795 0 2.394-.592 1.795-.592 3.59-1.184 4.188-2.368 1.795-2.961.598-5.922-.598-7.698s-10.172-8.291-14.36-11.843-6.581-5.33-8.975-7.698l-4.787-4.738c-1.197-1.184-1.795-2.368-2.393-2.961-1.197-2.96-1.795-6.513-1.197-11.25.598-6.514 2.991-11.844 5.983-17.765 1.197-2.369 4.188-7.106 4.188-7.106s-10.171 24.871-4.786 32.569c0 0 .598-7.698 2.992-15.396 1.795-5.33 4.787-13.028 8.376-17.173s12.564-19.541 13.163-29.016c0-4.145.598-8.29.598-11.251-2.393-2.369 39.489-8.29 41.882-1.776.598 2.369 8.975 23.686 13.761 34.937 2.393 5.33 5.385 10.067 7.18 15.988 1.795 6.514 2.991 15.396 2.991 24.279 0 1.776 0 4.737-.598 7.698 1.197 0 24.531-24.871-2.991-45.596 0 0 16.752 7.698 17.351 23.094.598 12.435-4.787 22.502-5.983 24.278.598 0 12.564 5.33 13.162 5.33 2.394 0 7.18-1.777 7.18-1.777.599-1.776 2.393-6.514 2.393-8.29 4.189-13.62-5.983-35.529-15.556-49.149h0z"/><path d="M111.078 75.574c4.296 0 7.778-5.302 7.778-11.843s-3.482-11.843-7.778-11.843-7.778 5.302-7.778 11.843 3.483 11.843 7.778 11.843zm26.924 1.184c5.618 0 10.172-6.098 10.172-13.62s-4.554-13.62-10.172-13.62-10.171 6.098-10.171 13.62 4.554 13.62 10.171 13.62z" fill="#eceff1"/><path d="M115.424 64.541c-.497-3.894-2.761-6.817-5.056-6.53s-3.752 3.676-3.254 7.57 2.76 6.817 5.055 6.53 3.752-3.676 3.255-7.57zm21.98 8.664c3.305 0 5.983-3.447 5.983-7.698s-2.678-7.698-5.983-7.698-5.983 3.447-5.983 7.698 2.679 7.698 5.983 7.698z" fill="#212121"/><path d="M216.98 195.781c-2.393-1.184-6.582-2.961-10.172-8.29-1.794-2.961-1.196-11.251-4.188-14.804-1.795-2.368-4.188-1.184-4.786-1.184-5.385 1.184-17.95 9.474-26.326 0-1.197-1.184-2.992-2.961-5.983-2.961s-4.188 1.184-5.385 3.553-1.197 4.145-1.197 10.067c0 4.737 0 10.066-.598 14.211-1.197 10.067-2.991 15.989-2.991 21.91 0 6.514 1.794 10.659 4.188 12.435 1.795 1.777 4.786 2.961 11.368 2.961s10.769-2.368 14.958-6.514c2.991-2.96 5.384-4.145 13.761-10.066 6.581-4.145 16.753-9.475 18.547-11.251 1.197-1.184 2.992-1.777 2.992-5.33 0-2.96-2.393-4.145-4.188-4.737h0zm-120.261 1.777c-5.983-9.475-6.582-11.251-10.77-17.173-3.59-5.921-11.368-17.172-16.154-17.172-3.59 0-5.385 1.776-7.778 4.145s-4.786 7.698-8.975 10.659c-3.59 2.96-13.761 2.368-16.154 5.921s2.393 8.883 2.393 17.765c0 3.553-2.992 5.921-3.59 8.29-.598 2.961-1.197 4.737 0 7.106 2.393 3.553 5.385 4.737 25.728 8.882 10.77 2.369 20.941 8.29 27.522 8.883s17.949 0 17.949-15.989c.599-9.474-4.786-11.843-10.171-21.317zm11.368-107.18c-3.59-2.369-6.582-4.737-6.582-8.29s2.394-4.737 5.984-7.698c.598-.592 7.179-6.514 13.761-6.514s14.359 4.145 17.351 5.329c5.385 1.184 10.769 2.369 10.171 6.514-.598 5.921-1.196 7.106-7.18 10.067-4.188 1.184-11.966 7.698-17.351 7.698-2.393 0-5.983 0-8.376-.592-1.795-.592-4.787-3.553-7.778-6.514h0z" fill="#ffc107"/><path d="M106.89 85.641c1.197 1.184 2.992 2.369 4.787 2.961 1.196.592 2.991 1.184 2.991 1.184h5.385c2.992 0 7.18-1.184 11.368-3.553 4.188-1.776 4.787-2.961 7.778-4.145 2.992-1.776 5.983-3.553 4.787-4.145s-2.394 0-6.582 2.369c-3.59 2.369-6.581 3.553-10.171 5.329-1.795.592-4.188 1.776-5.983 1.776h-5.385c-1.795 0-2.992-.592-4.787-1.184-1.196-.592-1.795-1.184-2.393-1.184-1.196-.592-3.59-2.961-4.786-3.553 0 0-1.197 0-.599.592l3.59 3.553zm17.95-13.028c.598 1.184 1.795 1.184 2.393 1.776s1.196.592 1.196.592c.599-.592 0-1.776-.598-1.776 0-1.184-2.991-1.184-2.991-.592h0zm-9.573 1.184c0 .592 1.196 1.184 1.196.592.599-.592 1.197-1.184 1.795-1.184 1.197-.592.598-1.184-1.196-1.184-1.197.592-1.197 1.184-1.795 1.776h0z" fill="#634703"/><path fill="#455a64" d="M173.303 178.609v1.776c1.197 2.369 4.188 2.961 6.581 2.961 3.59 0 7.18-2.369 8.975-4.737 0-.592.598-1.185 1.197-1.777 1.196-1.776 1.795-2.96 2.393-3.553 0 0-.598-.592-.598-1.184-.599-1.184-2.394-2.369-4.787-2.961-1.795-.592-4.786-1.184-5.983-1.184-5.385-.592-8.376 1.184-10.171 2.961 0 0 .598 0 .598.592 1.197 1.184 1.795 2.369 1.795 4.145.598 1.184 0 1.776 0 2.961h0z"/></svg></g><defs ><linearGradient id="L" gradientUnits="userSpaceOnUse"/></defs></svg>