<svg width="641.162" height="122.59" viewBox="0 0 641.162 122.59" xmlns="http://www.w3.org/2000/svg">
	<g id="svgGroup" stroke-linecap="round" fill-rule="evenodd" font-size="9pt" stroke="#000" stroke-width="0.25mm" fill="none" style="stroke:#000;stroke-width:0.25mm;fill:none">
		<path d="M 66.562 40.95 L 54.992 54.86 A 46.537 46.537 0 0 0 50.746 45.838 A 37.287 37.287 0 0 0 45.372 39 A 21.144 21.144 0 0 0 37.906 34.063 A 20.542 20.542 0 0 0 30.552 32.76 A 18.986 18.986 0 0 0 25.317 33.446 A 14.318 14.318 0 0 0 18.722 37.44 A 16.041 16.041 0 0 0 14.399 47.202 A 21.479 21.479 0 0 0 14.302 49.27 A 21.072 21.072 0 0 0 14.843 54.166 A 15.552 15.552 0 0 0 17.357 59.735 Q 20.412 63.96 24.897 66.625 A 79.279 79.279 0 0 0 28.011 68.373 Q 31.779 70.387 37.052 72.8 Q 44.852 76.44 49.532 79.17 Q 54.212 81.9 57.397 86.45 Q 60.582 91 60.582 97.5 A 25.748 25.748 0 0 1 59.439 105.367 A 20.224 20.224 0 0 1 52.457 115.31 A 28.821 28.821 0 0 1 41.133 120.619 Q 36.928 121.612 32.012 121.676 A 52.286 52.286 0 0 1 31.332 121.68 Q 22.362 121.68 14.172 117.975 A 33.83 33.83 0 0 1 6.694 113.411 A 27.894 27.894 0 0 1 1.432 107.77 L 12.612 94.9 A 47.083 47.083 0 0 0 16.404 102.608 A 34.47 34.47 0 0 0 22.297 109.85 A 23.239 23.239 0 0 0 27.168 113.364 A 17.262 17.262 0 0 0 35.362 115.44 A 14.237 14.237 0 0 0 39.289 114.924 A 10.92 10.92 0 0 0 44.007 112.19 A 11.214 11.214 0 0 0 46.44 108.767 A 10.271 10.271 0 0 0 47.322 104.52 Q 47.322 100.23 44.722 96.915 Q 42.122 93.6 38.092 91.195 Q 34.062 88.79 27.302 85.54 A 230.171 230.171 0 0 1 21.461 82.566 Q 16.63 80.012 13.132 77.805 Q 7.672 74.36 3.837 68.77 Q 0.002 63.18 0.002 55.25 A 26.355 26.355 0 0 1 4.617 40.04 A 30.515 30.515 0 0 1 15.093 30.581 A 37.061 37.061 0 0 1 17.292 29.445 A 39.946 39.946 0 0 1 31.948 25.713 A 47.579 47.579 0 0 1 35.102 25.61 A 41.648 41.648 0 0 1 47.171 27.318 A 37.438 37.438 0 0 1 52.912 29.575 Q 60.972 33.54 66.562 40.95 Z" id="0" vector-effect="non-scaling-stroke"/>
		<path d="M 128.702 66.43 L 116.092 71.63 Q 114.272 68.25 111.022 66.04 A 12.797 12.797 0 0 0 107.134 64.223 A 11.535 11.535 0 0 0 104.132 63.83 A 16.679 16.679 0 0 0 96.986 65.325 Q 93.124 67.129 90.352 71.11 A 27.46 27.46 0 0 0 86.071 81.26 A 38.982 38.982 0 0 0 85.282 89.31 A 55.195 55.195 0 0 0 85.668 96.043 Q 86.356 101.633 88.272 105.755 Q 91.229 112.12 97.621 112.189 A 13.016 13.016 0 0 0 97.762 112.19 A 14.857 14.857 0 0 0 102.976 111.327 Q 107.938 109.479 110.242 103.675 A 48.458 48.458 0 0 0 113.503 88.851 A 56.935 56.935 0 0 0 113.622 85.15 L 113.622 79.43 L 128.832 73.97 L 128.832 107.77 A 6.633 6.633 0 0 0 129.043 109.476 A 5.445 5.445 0 0 0 129.677 110.955 A 2.835 2.835 0 0 0 130.645 111.929 Q 131.183 112.247 131.881 112.306 A 3.889 3.889 0 0 0 132.212 112.32 Q 135.253 112.32 138.408 108.336 A 23.105 23.105 0 0 0 138.842 107.77 L 141.312 110.24 A 18.787 18.787 0 0 1 135.688 117.546 A 22.351 22.351 0 0 1 135.137 117.975 Q 130.912 121.16 126.102 121.16 A 14.466 14.466 0 0 1 122.542 120.75 A 9.162 9.162 0 0 1 117.002 116.935 A 15.8 15.8 0 0 1 114.77 111.767 Q 114.142 109.188 114.142 106.08 L 113.622 106.08 A 33.952 33.952 0 0 1 109.587 112.961 A 28.161 28.161 0 0 1 105.302 117.455 Q 100.102 121.81 93.212 121.81 A 22.653 22.653 0 0 1 86.146 120.763 A 17.947 17.947 0 0 1 77.157 114.205 Q 71.902 107.138 71.53 96.087 A 50.745 50.745 0 0 1 71.502 94.38 Q 71.502 83.98 75.987 75.01 Q 80.472 66.04 88.597 60.645 A 32.479 32.479 0 0 1 105.991 55.266 A 39.395 39.395 0 0 1 107.122 55.25 A 30.48 30.48 0 0 1 118.338 57.303 A 29.21 29.21 0 0 1 119.927 57.98 Q 125.842 60.71 128.702 66.43 Z" id="1" vector-effect="non-scaling-stroke"/>
		<path d="M 233.482 66.69 L 233.482 108.29 A 6.027 6.027 0 0 0 233.644 109.722 A 4.506 4.506 0 0 0 234.392 111.345 A 3.008 3.008 0 0 0 235.426 112.252 Q 236.008 112.554 236.737 112.578 A 3.844 3.844 0 0 0 236.862 112.58 A 4.207 4.207 0 0 0 238.126 112.372 Q 239.032 112.086 240.047 111.41 Q 241.663 110.333 243.113 108.374 A 18.666 18.666 0 0 0 243.362 108.03 L 245.702 110.5 Q 243.517 114.958 240.685 117.329 A 11.804 11.804 0 0 1 237.772 119.145 A 41.095 41.095 0 0 1 235.562 120.027 Q 233.208 120.882 231.521 121.092 A 8.357 8.357 0 0 1 230.492 121.16 A 16.673 16.673 0 0 1 225.349 120.435 Q 219.953 118.686 218.456 112.715 A 21.471 21.471 0 0 1 217.882 107.51 L 217.882 72.41 A 4.965 4.965 0 0 0 217.665 70.922 A 4.422 4.422 0 0 0 217.297 70.07 Q 216.917 69.396 216.401 69.158 A 1.419 1.419 0 0 0 215.802 69.03 A 3.056 3.056 0 0 0 214.033 69.664 Q 212.24 70.934 210.366 74.751 A 36.109 36.109 0 0 0 210.147 75.205 Q 207.222 81.38 205.207 92.69 A 122.838 122.838 0 0 0 203.76 104.007 Q 203.263 109.973 203.201 116.641 A 205.779 205.779 0 0 0 203.192 118.56 L 187.462 121.94 L 187.462 72.41 A 5.599 5.599 0 0 0 187.297 71.03 A 4.748 4.748 0 0 0 186.942 70.07 Q 186.422 69.03 185.512 69.03 A 2.643 2.643 0 0 0 184.014 69.566 Q 182.147 70.858 179.987 75.27 A 42.172 42.172 0 0 0 178.08 79.911 Q 176.228 85.221 174.787 92.82 A 116.9 116.9 0 0 0 173.195 104.709 Q 172.676 110.825 172.644 117.647 A 192.15 192.15 0 0 0 172.642 118.56 L 157.562 121.94 L 157.562 67.34 A 7.198 7.198 0 0 0 157.441 65.982 Q 157.289 65.189 156.944 64.564 A 3.933 3.933 0 0 0 156.587 64.025 A 3.263 3.263 0 0 0 155.544 63.139 Q 154.891 62.795 154.078 62.79 A 3.918 3.918 0 0 0 154.052 62.79 A 4.263 4.263 0 0 0 152.472 63.11 Q 151.909 63.333 151.331 63.713 A 8.66 8.66 0 0 0 150.802 64.09 A 10.867 10.867 0 0 0 149.226 65.593 Q 148.57 66.349 147.961 67.287 A 18.917 18.917 0 0 0 147.682 67.73 L 145.212 65.13 A 26.599 26.599 0 0 1 147.395 61.356 Q 149.965 57.7 153.272 56.225 A 44.135 44.135 0 0 1 155.531 55.287 Q 158.699 54.08 160.552 54.08 A 15.613 15.613 0 0 1 165.609 54.83 Q 172.565 57.208 172.766 67.132 A 29.496 29.496 0 0 1 172.772 67.73 L 172.772 83.2 L 173.292 83.2 A 90.363 90.363 0 0 1 175.795 74.515 Q 177.281 70.234 179.076 66.756 A 40.24 40.24 0 0 1 182.067 61.815 Q 185.093 57.578 188.256 55.662 A 10.152 10.152 0 0 1 193.572 54.08 Q 196.825 54.08 198.857 55.301 A 6.211 6.211 0 0 1 200.852 57.2 A 10.238 10.238 0 0 1 202.068 59.829 Q 202.86 62.356 202.926 66.018 A 37.445 37.445 0 0 1 202.932 66.69 L 202.932 83.2 L 203.712 83.2 Q 205.936 73.469 209.383 66.744 A 39.325 39.325 0 0 1 212.357 61.815 Q 217.882 54.08 223.992 54.08 Q 228.932 54.08 231.207 57.265 A 10.47 10.47 0 0 1 232.626 60.185 Q 233.074 61.587 233.287 63.303 A 27.521 27.521 0 0 1 233.482 66.69 Z" id="2" vector-effect="non-scaling-stroke"/>
		<path d="M 274.952 55.25 L 274.952 108.29 Q 274.952 109.847 275.532 110.907 A 3.756 3.756 0 0 0 275.862 111.41 A 2.911 2.911 0 0 0 277.987 112.565 A 3.885 3.885 0 0 0 278.332 112.58 Q 281.373 112.58 284.528 108.596 A 23.105 23.105 0 0 0 284.962 108.03 L 287.302 110.5 A 22.903 22.903 0 0 1 283.863 115.267 A 18.983 18.983 0 0 1 279.957 118.43 A 20.075 20.075 0 0 1 275.906 120.344 A 15.201 15.201 0 0 1 271.052 121.16 A 14.559 14.559 0 0 1 266.051 120.372 Q 259.222 117.881 259.222 107.51 L 259.222 60.71 L 274.952 55.25 Z M 275.342 10.92 L 270.792 41.6 L 262.602 44.2 L 257.272 17.03 L 275.342 10.92 Z" id="3" vector-effect="non-scaling-stroke"/>
		<path d="M 345.672 111.02 L 343.722 108.68 A 21.39 21.39 0 0 1 340.612 110.366 Q 338.832 111.137 337.145 111.401 A 11.233 11.233 0 0 1 335.402 111.54 A 13.51 13.51 0 0 1 331.71 111.064 A 9.688 9.688 0 0 1 326.497 107.51 A 14.813 14.813 0 0 1 323.74 101.047 A 20.253 20.253 0 0 1 323.442 97.5 Q 323.442 87.75 328.772 78.13 A 67.656 67.656 0 0 1 339.34 63.747 A 62.56 62.56 0 0 1 341.642 61.49 L 339.302 59.02 A 40.866 40.866 0 0 1 332.912 62.492 Q 329.118 64.108 325.483 64.562 A 22.721 22.721 0 0 1 322.662 64.74 A 12.388 12.388 0 0 1 314.933 62.021 A 16.849 16.849 0 0 1 313.497 60.775 Q 309.402 56.81 307.972 51.48 L 295.492 65.52 A 5.731 5.731 0 0 0 296.208 67.056 Q 296.623 67.697 297.232 68.338 A 12.87 12.87 0 0 0 298.092 69.16 A 328.91 328.91 0 0 1 298.812 69.792 Q 300.086 70.913 300.478 71.288 A 5.412 5.412 0 0 1 300.562 71.37 L 291.852 89.31 L 297.182 91.65 L 305.632 73.58 Q 309.012 74.88 313.042 74.88 A 24.991 24.991 0 0 0 318.132 74.387 A 18.207 18.207 0 0 0 323.702 72.28 L 324.092 72.8 A 49.152 49.152 0 0 0 318.567 80.396 A 66.523 66.523 0 0 0 314.667 88.075 Q 310.702 97.24 310.702 104.78 A 22.325 22.325 0 0 0 311.345 110.277 A 16.535 16.535 0 0 0 314.602 116.805 A 12.684 12.684 0 0 0 322.679 121.323 A 18.673 18.673 0 0 0 325.652 121.55 Q 331.372 121.55 336.637 118.69 Q 341.902 115.83 345.672 111.02 Z" id="4" vector-effect="non-scaling-stroke"/>
		<path d="M 403.262 92.04 L 403.912 88.4 Q 412.752 87.23 420.942 82.745 A 39.407 39.407 0 0 0 433.235 72.428 A 38.265 38.265 0 0 0 434.267 71.045 Q 439.402 63.83 439.402 54.73 Q 439.402 45.24 434.007 39.65 Q 428.612 34.06 417.692 34.06 A 42.289 42.289 0 0 0 405.258 35.997 A 53.388 53.388 0 0 0 399.037 38.35 Q 389.482 42.64 381.682 49.53 L 378.302 45.89 Q 388.052 36.92 400.532 31.265 Q 413.012 25.61 426.922 25.61 A 38.891 38.891 0 0 1 435.968 26.606 A 27.225 27.225 0 0 1 447.917 32.695 A 23.218 23.218 0 0 1 455.473 46.706 A 33.688 33.688 0 0 1 455.912 52.26 A 30.881 30.881 0 0 1 450.035 70.337 A 39.179 39.179 0 0 1 448.632 72.215 A 49.831 49.831 0 0 1 433.588 84.809 A 59.833 59.833 0 0 1 429.717 86.775 Q 418.082 92.17 405.862 92.17 Q 404.432 92.17 403.262 92.04 Z M 402.742 43.81 L 402.742 117.26 L 387.012 122.59 L 387.012 49.14 L 402.742 43.81 Z" id="6" vector-effect="non-scaling-stroke"/>
		<path d="M 509.602 66.43 L 496.992 71.63 Q 495.172 68.25 491.922 66.04 A 12.797 12.797 0 0 0 488.034 64.223 A 11.535 11.535 0 0 0 485.032 63.83 A 16.679 16.679 0 0 0 477.886 65.325 Q 474.024 67.129 471.252 71.11 A 27.46 27.46 0 0 0 466.971 81.26 A 38.982 38.982 0 0 0 466.182 89.31 A 55.195 55.195 0 0 0 466.568 96.043 Q 467.256 101.633 469.172 105.755 Q 472.129 112.12 478.521 112.189 A 13.016 13.016 0 0 0 478.662 112.19 A 14.857 14.857 0 0 0 483.876 111.327 Q 488.838 109.479 491.142 103.675 A 48.458 48.458 0 0 0 494.403 88.851 A 56.935 56.935 0 0 0 494.522 85.15 L 494.522 79.43 L 509.732 73.97 L 509.732 107.77 A 6.633 6.633 0 0 0 509.943 109.476 A 5.445 5.445 0 0 0 510.577 110.955 A 2.835 2.835 0 0 0 511.545 111.929 Q 512.083 112.247 512.781 112.306 A 3.889 3.889 0 0 0 513.112 112.32 Q 516.153 112.32 519.308 108.336 A 23.105 23.105 0 0 0 519.742 107.77 L 522.212 110.24 A 18.787 18.787 0 0 1 516.588 117.546 A 22.351 22.351 0 0 1 516.037 117.975 Q 511.812 121.16 507.002 121.16 A 14.466 14.466 0 0 1 503.442 120.75 A 9.162 9.162 0 0 1 497.902 116.935 A 15.8 15.8 0 0 1 495.67 111.767 Q 495.042 109.188 495.042 106.08 L 494.522 106.08 A 33.952 33.952 0 0 1 490.487 112.961 A 28.161 28.161 0 0 1 486.202 117.455 Q 481.002 121.81 474.112 121.81 A 22.653 22.653 0 0 1 467.046 120.763 A 17.947 17.947 0 0 1 458.057 114.205 Q 452.802 107.138 452.43 96.087 A 50.745 50.745 0 0 1 452.402 94.38 Q 452.402 83.98 456.887 75.01 Q 461.372 66.04 469.497 60.645 A 32.479 32.479 0 0 1 486.891 55.266 A 39.395 39.395 0 0 1 488.022 55.25 A 30.48 30.48 0 0 1 499.238 57.303 A 29.21 29.21 0 0 1 500.827 57.98 Q 506.742 60.71 509.602 66.43 Z" id="7" vector-effect="non-scaling-stroke"/>
		<path d="M 588.382 53.56 L 588.382 108.16 A 6.849 6.849 0 0 0 588.51 109.522 Q 588.683 110.376 589.091 111.046 A 4.1 4.1 0 0 0 589.292 111.345 A 2.94 2.94 0 0 0 591.432 112.556 A 4.209 4.209 0 0 0 591.892 112.58 A 4.127 4.127 0 0 0 593.619 112.154 Q 595.049 111.492 596.751 109.801 A 27.171 27.171 0 0 0 598.262 108.16 L 600.472 110.5 Q 598.252 115.029 595.304 117.404 A 11.977 11.977 0 0 1 592.412 119.145 A 45.77 45.77 0 0 1 590.153 120.027 Q 587.91 120.829 586.327 121.063 A 8.215 8.215 0 0 1 585.132 121.16 A 16.787 16.787 0 0 1 582.348 120.944 Q 580.851 120.692 579.657 120.145 A 7.719 7.719 0 0 1 577.787 118.95 A 8.77 8.77 0 0 1 575.994 116.725 Q 575.366 115.646 574.884 114.268 A 22.244 22.244 0 0 1 574.147 111.605 Q 573.149 106.967 573.052 98.883 A 148.387 148.387 0 0 1 573.042 97.11 L 573.042 93.21 L 572.522 84.24 L 572.002 84.24 A 106.451 106.451 0 0 1 564.383 106.612 A 97.751 97.751 0 0 1 562.707 109.98 A 31.034 31.034 0 0 1 559.156 115.43 Q 553.873 121.81 546.522 121.81 A 14.487 14.487 0 0 1 544.098 121.621 Q 541.465 121.173 539.957 119.665 A 9.153 9.153 0 0 1 537.867 116.352 A 12.846 12.846 0 0 1 537.227 113.88 A 36.811 36.811 0 0 1 536.918 111.338 Q 536.642 108.249 536.642 103.87 L 536.642 67.73 A 8.728 8.728 0 0 0 536.553 66.444 Q 536.449 65.748 536.224 65.182 A 3.995 3.995 0 0 0 535.732 64.285 A 3.008 3.008 0 0 0 534.698 63.378 Q 534.116 63.076 533.386 63.052 A 3.844 3.844 0 0 0 533.262 63.05 A 5.026 5.026 0 0 0 530.892 63.694 Q 529.205 64.592 527.414 66.74 A 24.422 24.422 0 0 0 526.632 67.73 L 524.422 65.26 A 22.87 22.87 0 0 1 526.411 61.738 Q 527.781 59.769 529.456 58.409 A 13.781 13.781 0 0 1 530.012 57.98 A 29.503 29.503 0 0 1 532.042 56.614 Q 533.079 55.981 534.023 55.55 A 11.458 11.458 0 0 1 535.927 54.86 A 55.361 55.361 0 0 1 536.952 54.607 Q 538.312 54.286 538.971 54.224 A 2.976 2.976 0 0 1 539.242 54.21 A 20.183 20.183 0 0 1 542.872 54.513 Q 547.103 55.289 549.252 58.045 A 13.841 13.841 0 0 1 551.889 63.946 A 19.344 19.344 0 0 1 552.242 67.73 L 552.242 102.44 A 15.115 15.115 0 0 0 552.299 103.8 Q 552.42 105.14 552.8 106.02 A 4.304 4.304 0 0 0 552.827 106.08 Q 553.412 107.38 554.322 107.38 Q 558.127 107.38 561.503 101.148 A 38.506 38.506 0 0 0 563.032 97.955 A 99.11 99.11 0 0 0 567.023 86.699 A 130.09 130.09 0 0 0 569.532 76.505 Q 571.394 67.439 571.852 62.105 A 36.505 36.505 0 0 0 572.002 59.02 L 588.382 53.56 Z" id="8" vector-effect="non-scaling-stroke"/>
		<path d="M 628.552 0 L 628.552 108.29 A 5.738 5.738 0 0 0 628.827 110.091 A 5.083 5.083 0 0 0 629.397 111.28 A 2.761 2.761 0 0 0 631.363 112.526 A 4.351 4.351 0 0 0 632.062 112.58 A 5.145 5.145 0 0 0 634.07 112.153 Q 634.754 111.865 635.447 111.383 A 9.69 9.69 0 0 0 635.767 111.15 A 15.225 15.225 0 0 0 637.661 109.459 A 12.329 12.329 0 0 0 638.822 108.03 L 641.162 110.5 A 20.849 20.849 0 0 1 635.118 117.745 A 24.325 24.325 0 0 1 634.727 118.04 A 16.213 16.213 0 0 1 630.108 120.463 A 14.188 14.188 0 0 1 625.692 121.16 A 16.673 16.673 0 0 1 620.549 120.435 Q 615.153 118.686 613.656 112.715 A 21.471 21.471 0 0 1 613.082 107.51 L 613.082 5.59 L 628.552 0 Z" id="9" vector-effect="non-scaling-stroke"/>
	</g>
</svg>