<svg width="873.486" height="141.577" viewBox="0 0 873.486 141.577" xmlns="http://www.w3.org/2000/svg">
	<g id="svgGroup" stroke-linecap="round" fill-rule="evenodd" font-size="9pt" stroke="#000" stroke-width="0.25mm" fill="none" style="stroke:#000;stroke-width:0.25mm;fill:none">
		<path d="M 0 105.176 L 14.941 90.015 Q 16.992 95.068 20.581 99.353 A 43.156 43.156 0 0 0 27.922 106.325 A 40.209 40.209 0 0 0 28.455 106.714 A 39.657 39.657 0 0 0 36.062 111.027 A 36.412 36.412 0 0 0 37.354 111.548 A 28.525 28.525 0 0 0 41.703 112.838 A 21.461 21.461 0 0 0 46.069 113.306 A 59.7 59.7 0 0 0 52.162 113.006 A 50.203 50.203 0 0 0 55.151 112.61 A 29.339 29.339 0 0 0 59.009 111.721 A 21.762 21.762 0 0 0 62.549 110.303 Q 65.698 108.691 67.493 106.018 A 10.209 10.209 0 0 0 68.968 102.474 Q 69.267 101.107 69.286 99.528 A 17.847 17.847 0 0 0 69.287 99.316 A 11.364 11.364 0 0 0 69.004 96.72 A 8.648 8.648 0 0 0 67.896 94.043 Q 66.504 91.846 64.27 90.271 A 22.108 22.108 0 0 0 60.904 88.331 A 26.378 26.378 0 0 0 59.18 87.598 Q 56.323 86.499 53.357 85.73 A 153.246 153.246 0 0 0 47.534 84.338 A 83.805 83.805 0 0 1 45.161 83.787 Q 44.078 83.517 43.111 83.241 A 49.613 49.613 0 0 1 42.48 83.057 Q 38.159 81.812 33.472 80.383 A 111.794 111.794 0 0 1 24.243 77.124 A 65.403 65.403 0 0 1 15.637 72.913 Q 11.572 70.532 8.496 67.273 Q 5.42 64.014 3.589 59.729 A 22.323 22.323 0 0 1 2.06 54.189 A 29.555 29.555 0 0 1 1.758 49.878 A 46.09 46.09 0 0 1 2.12 43.959 A 33.635 33.635 0 0 1 3.406 38.049 A 30.093 30.093 0 0 1 5.976 32.158 A 25.62 25.62 0 0 1 8.057 29.077 A 28.23 28.23 0 0 1 15.161 22.668 A 38.758 38.758 0 0 1 23.56 18.694 A 43.101 43.101 0 0 1 24.17 18.494 A 56.379 56.379 0 0 1 32.555 16.515 A 63.777 63.777 0 0 1 34.607 16.223 Q 40.137 15.527 45.923 15.527 A 74.026 74.026 0 0 1 53.924 15.941 A 56.931 56.931 0 0 1 60.315 16.992 A 55.404 55.404 0 0 1 69.482 19.89 A 49.369 49.369 0 0 1 72.29 21.167 Q 77.783 23.877 82.361 27.649 A 73.294 73.294 0 0 1 90.967 36.035 L 76.025 51.196 A 34.458 34.458 0 0 0 71.348 41.941 A 32.66 32.66 0 0 0 71.155 41.675 A 38.91 38.91 0 0 0 65.866 35.775 A 34.994 34.994 0 0 0 64.233 34.387 A 32.068 32.068 0 0 0 58.315 30.611 A 28.678 28.678 0 0 0 56.25 29.7 Q 52.075 28.052 48.193 28.052 A 64.127 64.127 0 0 0 42.763 28.272 A 50.38 50.38 0 0 0 38.892 28.748 A 29.564 29.564 0 0 0 35.29 29.559 Q 33.456 30.101 31.919 30.859 A 17.805 17.805 0 0 0 31.604 31.018 A 12.569 12.569 0 0 0 28.368 33.38 A 11.321 11.321 0 0 0 26.88 35.266 Q 25.241 37.866 25.197 41.679 A 18.326 18.326 0 0 0 25.195 41.895 Q 25.195 45.044 26.44 47.241 A 11.872 11.872 0 0 0 29.773 50.977 A 18.927 18.927 0 0 0 33.528 53.113 A 21.734 21.734 0 0 0 34.497 53.503 Q 37.134 54.492 39.954 55.225 A 100.713 100.713 0 0 0 45.52 56.506 A 69.102 69.102 0 0 1 48.148 57.083 A 53.593 53.593 0 0 1 50.537 57.715 A 2127.101 2127.101 0 0 1 55.042 58.997 A 2458.264 2458.264 0 0 1 59.766 60.352 A 101.78 101.78 0 0 1 69.287 63.611 A 71.728 71.728 0 0 1 78.223 67.896 Q 82.471 70.313 85.693 73.645 Q 88.916 76.978 90.82 81.335 A 22.399 22.399 0 0 1 92.434 87.123 A 29.384 29.384 0 0 1 92.725 91.333 A 45.779 45.779 0 0 1 92.353 97.317 Q 91.938 100.46 91.061 103.17 A 28.171 28.171 0 0 1 91.003 103.345 A 29.789 29.789 0 0 1 88.308 109.301 A 25.514 25.514 0 0 1 86.169 112.354 A 28.346 28.346 0 0 1 78.809 118.726 Q 74.561 121.289 69.543 122.827 A 59.267 59.267 0 0 1 60.401 124.834 A 66.499 66.499 0 0 1 58.923 125.024 A 97.4 97.4 0 0 1 47.534 125.684 A 89.778 89.778 0 0 1 39.336 125.324 A 71.461 71.461 0 0 1 33.472 124.548 Q 27.026 123.413 21.35 120.959 A 54.861 54.861 0 0 1 10.437 114.624 Q 5.2 110.742 0 105.176 Z" id="0" vector-effect="non-scaling-stroke"/>
		<path d="M 193.579 38.965 L 193.579 123.56 L 168.823 123.56 L 168.823 113.452 A 28.992 28.992 0 0 1 162.672 119.712 A 25.862 25.862 0 0 1 158.24 122.351 Q 152.051 125.244 144.653 125.244 A 46.471 46.471 0 0 1 135.027 124.287 A 37.24 37.24 0 0 1 127.368 121.802 A 37.635 37.635 0 0 1 114.478 112.39 A 40.831 40.831 0 0 1 106.965 99.857 A 46.986 46.986 0 0 1 106.421 98.364 A 51.546 51.546 0 0 1 103.706 83.934 A 59.454 59.454 0 0 1 103.638 81.079 A 54.183 54.183 0 0 1 105.199 67.912 A 48.814 48.814 0 0 1 106.421 63.794 A 42.191 42.191 0 0 1 112.29 52.479 A 39.061 39.061 0 0 1 114.478 49.768 A 37.635 37.635 0 0 1 127.368 40.356 A 38.506 38.506 0 0 1 138.249 37.321 A 48.913 48.913 0 0 1 144.653 36.914 A 29.559 29.559 0 0 1 153.992 38.379 Q 158.423 39.844 162.122 42.517 A 30.202 30.202 0 0 1 168.64 48.962 Q 171.46 52.734 173.071 57.349 L 184.058 38.965 L 193.579 38.965 Z M 168.677 81.079 A 73.877 73.877 0 0 0 168.521 76.374 A 87.019 87.019 0 0 0 168.347 74.121 A 55.975 55.975 0 0 0 167.212 66.87 A 37.463 37.463 0 0 0 164.978 60.022 A 22.04 22.04 0 0 0 161.455 54.394 A 20.902 20.902 0 0 0 161.316 54.236 A 16.233 16.233 0 0 0 155.933 50.244 A 15.378 15.378 0 0 0 151.831 49.021 A 20.603 20.603 0 0 0 148.608 48.779 A 19.55 19.55 0 0 0 145.051 49.088 A 14.315 14.315 0 0 0 141.357 50.281 A 16.497 16.497 0 0 0 136.084 54.309 A 22.056 22.056 0 0 0 132.78 59.42 A 25.062 25.062 0 0 0 132.458 60.132 A 38.46 38.46 0 0 0 130.225 67.017 A 56.086 56.086 0 0 0 129.089 74.231 A 81.199 81.199 0 0 0 128.806 78.605 A 67.589 67.589 0 0 0 128.76 81.079 A 71.511 71.511 0 0 0 128.889 85.279 A 87.094 87.094 0 0 0 129.089 87.964 A 55.975 55.975 0 0 0 130.225 95.215 A 38.46 38.46 0 0 0 132.458 102.1 Q 133.887 105.396 136.084 107.922 Q 138.281 110.449 141.357 111.951 A 14.373 14.373 0 0 0 145.166 113.165 A 19.66 19.66 0 0 0 148.608 113.452 A 15.728 15.728 0 0 0 152.417 113.008 A 12.99 12.99 0 0 0 155.383 111.877 Q 158.35 110.303 160.583 107.666 Q 162.817 105.029 164.355 101.66 A 43.721 43.721 0 0 0 166.846 94.702 Q 167.798 91.113 168.237 87.561 A 61.711 61.711 0 0 0 168.567 84.164 A 45.694 45.694 0 0 0 168.677 81.079 Z" id="1" vector-effect="non-scaling-stroke"/>
		<path d="M 316.846 141.577 L 307.544 136.523 A 55.526 55.526 0 0 0 309.937 131.665 A 69.751 69.751 0 0 0 311.426 127.954 A 124.785 124.785 0 0 0 314.089 119.879 A 139.796 139.796 0 0 0 314.648 117.92 A 146.422 146.422 0 0 0 317.212 107.08 Q 318.311 101.514 319.08 95.984 A 161.139 161.139 0 0 0 320.117 86.559 A 145.392 145.392 0 0 0 320.215 85.254 A 150.571 150.571 0 0 0 320.527 79.086 A 122.293 122.293 0 0 0 320.581 75.513 A 101.748 101.748 0 0 0 320.544 72.839 A 129.204 129.204 0 0 0 320.435 69.946 A 55.645 55.645 0 0 0 319.812 63.94 A 33.561 33.561 0 0 0 318.384 58.191 A 17.745 17.745 0 0 0 316.33 54.044 A 16.345 16.345 0 0 0 315.784 53.284 A 12.184 12.184 0 0 0 311.682 49.841 A 10.889 10.889 0 0 0 308.656 48.814 Q 307.319 48.56 305.786 48.56 Q 302.417 48.56 300.037 50.354 A 15.102 15.102 0 0 0 296.857 53.643 A 18.172 18.172 0 0 0 295.972 55.005 Q 294.287 57.861 293.298 61.45 Q 292.31 65.039 291.797 68.665 A 86.092 86.092 0 0 0 291.248 73.494 A 73.656 73.656 0 0 0 291.101 75.586 A 144.178 144.178 0 0 0 290.989 77.914 Q 290.918 79.733 290.918 81.152 L 290.918 123.56 L 266.235 123.56 L 266.235 84.155 A 224.312 224.312 0 0 1 266.246 82.083 Q 266.263 80.232 266.309 77.966 A 80.587 80.587 0 0 0 266.325 76.339 Q 266.325 73.462 266.125 70.386 A 71.422 71.422 0 0 0 265.173 62.512 A 29.243 29.243 0 0 0 264.138 58.377 A 23.319 23.319 0 0 0 262.976 55.518 Q 261.475 52.441 258.911 50.5 A 9.364 9.364 0 0 0 255.032 48.799 A 13.101 13.101 0 0 0 252.466 48.56 A 9.813 9.813 0 0 0 249.785 48.91 A 7.788 7.788 0 0 0 246.936 50.391 A 14.087 14.087 0 0 0 244.103 53.571 A 17.302 17.302 0 0 0 243.201 55.115 Q 241.699 58.008 240.857 61.633 A 62.538 62.538 0 0 0 239.612 68.884 Q 239.209 72.51 239.136 75.769 A 389.521 389.521 0 0 0 239.104 77.328 Q 239.063 79.559 239.063 81.152 L 239.063 123.56 L 214.233 123.56 L 214.233 38.965 L 223.755 38.965 L 232.837 58.667 A 40.567 40.567 0 0 1 236.065 50.817 A 29.273 29.273 0 0 1 242.542 42.664 A 22.67 22.67 0 0 1 252.238 37.791 Q 255.865 36.914 260.156 36.914 Q 270.044 36.914 276.563 41.016 A 22.726 22.726 0 0 1 282.85 47.022 Q 284.765 49.665 286.272 53.062 A 42.314 42.314 0 0 1 286.816 54.346 A 46.571 46.571 0 0 1 290.116 48.971 A 40.51 40.51 0 0 1 291.541 47.095 A 29.369 29.369 0 0 1 296.931 41.889 A 27.498 27.498 0 0 1 297.327 41.602 A 24.779 24.779 0 0 1 304.395 38.123 A 26.601 26.601 0 0 1 309.699 37.07 A 33.224 33.224 0 0 1 312.964 36.914 A 44.442 44.442 0 0 1 319.569 37.379 Q 324.091 38.06 327.722 39.734 A 27.2 27.2 0 0 1 335.5 45.041 A 25.462 25.462 0 0 1 337.72 47.534 A 30.486 30.486 0 0 1 342.343 56.043 A 37.135 37.135 0 0 1 343.359 59.363 A 56.213 56.213 0 0 1 344.946 69.316 A 67.929 67.929 0 0 1 345.117 74.194 A 82.119 82.119 0 0 1 344.011 87.391 A 96.509 96.509 0 0 1 343.066 92.358 Q 341.016 101.807 337.317 110.779 Q 333.618 119.751 328.418 127.734 A 75.586 75.586 0 0 1 320.714 137.708 A 65.795 65.795 0 0 1 316.846 141.577 Z" id="2" vector-effect="non-scaling-stroke"/>
		<path d="M 386.499 39.038 L 386.499 123.56 L 361.67 123.56 L 361.67 39.038 L 386.499 39.038 Z M 386.536 23.804 A 13.302 13.302 0 0 0 387.598 18.53 A 13.041 13.041 0 0 0 386.536 13.293 A 13.68 13.68 0 0 0 383.643 9.009 Q 381.812 7.178 379.321 6.116 A 13.302 13.302 0 0 0 374.048 5.054 A 13.041 13.041 0 0 0 368.811 6.116 A 13.68 13.68 0 0 0 364.526 9.009 A 13.68 13.68 0 0 0 361.633 13.293 A 13.041 13.041 0 0 0 360.571 18.53 A 13.302 13.302 0 0 0 361.633 23.804 Q 362.695 26.294 364.526 28.125 A 13.68 13.68 0 0 0 368.811 31.018 A 13.041 13.041 0 0 0 374.048 32.08 A 13.302 13.302 0 0 0 379.321 31.018 Q 381.812 29.956 383.643 28.125 Q 385.474 26.294 386.536 23.804 Z" id="3" vector-effect="non-scaling-stroke"/>
		<path d="M 479.15 46.436 L 465.234 69.507 A 79.559 79.559 0 0 0 464.367 66.803 Q 463.747 64.975 462.964 62.915 A 36.688 36.688 0 0 0 459.521 56.067 A 20.74 20.74 0 0 0 455.056 51.064 A 19.669 19.669 0 0 0 454.614 50.72 A 10.629 10.629 0 0 0 448.022 48.56 A 11.328 11.328 0 0 0 444.809 48.999 A 9.484 9.484 0 0 0 442.053 50.317 A 15.179 15.179 0 0 0 438.22 54.207 A 17.697 17.697 0 0 0 437.769 54.895 A 26.745 26.745 0 0 0 435.646 59.118 A 32.022 32.022 0 0 0 434.875 61.267 A 53.042 53.042 0 0 0 433.118 68.445 Q 432.495 72.07 432.275 75.403 Q 432.107 77.954 432.068 79.969 A 60.557 60.557 0 0 0 432.056 81.152 L 432.056 123.56 L 407.227 123.56 L 407.227 38.965 L 416.748 38.965 L 426.782 58.667 A 57.508 57.508 0 0 1 430.423 51.568 A 51.204 51.204 0 0 1 431.47 49.915 A 32.199 32.199 0 0 1 436.701 43.77 A 29.878 29.878 0 0 1 437.549 43.03 A 26.069 26.069 0 0 1 445.349 38.525 A 25.524 25.524 0 0 1 450.924 37.18 A 33.145 33.145 0 0 1 455.2 36.914 A 40.635 40.635 0 0 1 458.221 37.033 Q 459.765 37.148 461.463 37.375 A 65.23 65.23 0 0 1 461.572 37.39 A 37.107 37.107 0 0 1 468.457 39.001 Q 471.826 40.137 474.683 41.968 A 14.76 14.76 0 0 1 477.767 44.571 A 12.974 12.974 0 0 1 479.15 46.436 Z" id="4" vector-effect="non-scaling-stroke"/>
		<path d="M 562.646 84.155 L 562.646 123.56 L 533.569 123.56 L 533.569 18.091 L 590.552 18.091 Q 597.949 18.091 604.724 20.068 A 37.048 37.048 0 0 1 614.001 24.168 A 33.803 33.803 0 0 1 616.699 26.038 Q 621.899 30.029 625.012 36.072 A 27.5 27.5 0 0 1 627.65 44.211 A 36.774 36.774 0 0 1 628.125 50.244 A 31.895 31.895 0 0 1 627.301 57.584 A 28.699 28.699 0 0 1 626.66 59.875 A 31.24 31.24 0 0 1 622.595 68.115 Q 619.995 71.851 616.479 74.854 A 36.718 36.718 0 0 1 608.789 79.907 A 41.677 41.677 0 0 1 599.963 83.057 Q 595.313 84.155 590.552 84.155 L 562.646 84.155 Z M 577.954 28.418 L 562.646 28.418 L 562.646 74.194 L 577.954 74.194 A 28.895 28.895 0 0 0 582.205 73.898 Q 584.522 73.553 586.47 72.807 A 16.569 16.569 0 0 0 587.439 72.4 A 17.039 17.039 0 0 0 592.777 68.633 A 16.314 16.314 0 0 0 593.848 67.383 A 20.525 20.525 0 0 0 596.923 61.687 A 24.619 24.619 0 0 0 597.51 59.802 A 33.924 33.924 0 0 0 598.517 54.026 A 42.205 42.205 0 0 0 598.682 50.244 A 32.388 32.388 0 0 0 598.071 43.76 Q 596.907 38.062 593.518 34.241 Q 588.902 29.035 580.099 28.483 A 34.309 34.309 0 0 0 577.954 28.418 Z" id="6" vector-effect="non-scaling-stroke"/>
		<path d="M 725.244 38.965 L 725.244 123.56 L 700.488 123.56 L 700.488 113.452 A 28.992 28.992 0 0 1 694.337 119.712 A 25.862 25.862 0 0 1 689.905 122.351 Q 683.716 125.244 676.318 125.244 A 46.471 46.471 0 0 1 666.692 124.287 A 37.24 37.24 0 0 1 659.033 121.802 A 37.635 37.635 0 0 1 646.143 112.39 A 40.831 40.831 0 0 1 638.63 99.857 A 46.986 46.986 0 0 1 638.086 98.364 A 51.546 51.546 0 0 1 635.371 83.934 A 59.454 59.454 0 0 1 635.303 81.079 A 54.183 54.183 0 0 1 636.864 67.912 A 48.814 48.814 0 0 1 638.086 63.794 A 42.191 42.191 0 0 1 643.955 52.479 A 39.061 39.061 0 0 1 646.143 49.768 A 37.635 37.635 0 0 1 659.033 40.356 A 38.506 38.506 0 0 1 669.914 37.321 A 48.913 48.913 0 0 1 676.318 36.914 A 29.559 29.559 0 0 1 685.657 38.379 Q 690.088 39.844 693.787 42.517 A 30.202 30.202 0 0 1 700.305 48.962 Q 703.125 52.734 704.736 57.349 L 715.723 38.965 L 725.244 38.965 Z M 700.342 81.079 A 73.877 73.877 0 0 0 700.186 76.374 A 87.019 87.019 0 0 0 700.012 74.121 A 55.975 55.975 0 0 0 698.877 66.87 A 37.463 37.463 0 0 0 696.643 60.022 A 22.04 22.04 0 0 0 693.12 54.394 A 20.902 20.902 0 0 0 692.981 54.236 A 16.233 16.233 0 0 0 687.598 50.244 A 15.378 15.378 0 0 0 683.496 49.021 A 20.603 20.603 0 0 0 680.273 48.779 A 19.55 19.55 0 0 0 676.716 49.088 A 14.315 14.315 0 0 0 673.022 50.281 A 16.497 16.497 0 0 0 667.749 54.309 A 22.056 22.056 0 0 0 664.445 59.42 A 25.062 25.062 0 0 0 664.124 60.132 A 38.46 38.46 0 0 0 661.89 67.017 A 56.086 56.086 0 0 0 660.754 74.231 A 81.199 81.199 0 0 0 660.471 78.605 A 67.589 67.589 0 0 0 660.425 81.079 A 71.511 71.511 0 0 0 660.554 85.279 A 87.094 87.094 0 0 0 660.754 87.964 A 55.975 55.975 0 0 0 661.89 95.215 A 38.46 38.46 0 0 0 664.124 102.1 Q 665.552 105.396 667.749 107.922 Q 669.946 110.449 673.022 111.951 A 14.373 14.373 0 0 0 676.831 113.165 A 19.66 19.66 0 0 0 680.273 113.452 A 15.728 15.728 0 0 0 684.082 113.008 A 12.99 12.99 0 0 0 687.048 111.877 Q 690.015 110.303 692.249 107.666 Q 694.482 105.029 696.021 101.66 A 43.721 43.721 0 0 0 698.511 94.702 Q 699.463 91.113 699.902 87.561 A 61.711 61.711 0 0 0 700.232 84.164 A 45.694 45.694 0 0 0 700.342 81.079 Z" id="7" vector-effect="non-scaling-stroke"/>
		<path d="M 755.859 38.965 L 773.95 38.965 A 136.443 136.443 0 0 0 770.871 49.683 A 149.106 149.106 0 0 0 770.691 50.427 A 172.287 172.287 0 0 0 768.274 62.366 A 172.605 172.605 0 0 0 766.736 74.048 Q 766.187 79.761 766.187 84.668 A 72.508 72.508 0 0 0 766.287 88.396 A 88.701 88.701 0 0 0 766.443 90.784 A 54.358 54.358 0 0 0 767.358 97.302 Q 768.018 100.562 769.226 103.564 A 20.609 20.609 0 0 0 771.43 107.677 A 18.541 18.541 0 0 0 772.339 108.875 Q 774.243 111.182 776.99 112.537 Q 779.736 113.892 783.472 113.892 A 13.944 13.944 0 0 0 787.449 113.341 A 12.173 12.173 0 0 0 790.027 112.244 A 18.247 18.247 0 0 0 795.117 107.922 A 26.102 26.102 0 0 0 798.253 103.07 A 30.088 30.088 0 0 0 798.853 101.807 A 48.734 48.734 0 0 0 801.379 94.739 A 56.428 56.428 0 0 0 802.717 88.506 A 51.111 51.111 0 0 0 802.844 87.634 Q 803.32 84.155 803.32 81.372 L 803.32 38.965 L 828.076 38.965 L 828.076 123.56 L 818.555 123.56 L 807.202 103.857 A 42.934 42.934 0 0 1 802.784 111.744 A 39.511 39.511 0 0 1 802.039 112.756 A 34.044 34.044 0 0 1 795.117 119.604 A 30.175 30.175 0 0 1 786.511 123.999 Q 781.787 125.537 776.294 125.537 A 45.852 45.852 0 0 1 769.038 124.99 Q 764.79 124.309 761.216 122.78 A 28.822 28.822 0 0 1 760.986 122.681 A 30.529 30.529 0 0 1 752.597 117.3 A 28.322 28.322 0 0 1 750.146 114.771 A 32.106 32.106 0 0 1 744.595 105.329 A 38.275 38.275 0 0 1 743.701 102.722 Q 741.577 95.728 741.577 87.378 A 74.596 74.596 0 0 1 742.205 77.877 A 85.123 85.123 0 0 1 742.566 75.366 A 95.351 95.351 0 0 1 745.422 62.915 A 111.219 111.219 0 0 1 749.927 50.61 Q 752.563 44.531 755.859 38.965 Z" id="8" vector-effect="non-scaling-stroke"/>
		<path d="M 873.486 25.708 L 873.486 123.56 L 848.73 123.56 L 848.73 0 L 858.252 0 L 873.486 25.708 Z" id="9" vector-effect="non-scaling-stroke"/>
	</g>
</svg>