<svg width="718.202" height="140.7" viewBox="0 0 718.202 140.7" xmlns="http://www.w3.org/2000/svg">
	<g id="svgGroup" stroke-linecap="round" fill-rule="evenodd" font-size="9pt" stroke="#000" stroke-width="0.25mm" fill="none" style="stroke:#000;stroke-width:0.25mm;fill:none">
		<path d="M 72.752 46.95 L 61.052 61.35 A 45.942 45.942 0 0 0 55.303 50.15 A 40.149 40.149 0 0 0 49.877 43.95 Q 42.452 37.05 32.252 37.05 Q 22.502 37.05 17.102 42.6 A 18.845 18.845 0 0 0 11.861 53.952 A 25.628 25.628 0 0 0 11.702 56.85 A 27.776 27.776 0 0 0 12.345 62.986 A 19.937 19.937 0 0 0 15.602 70.35 Q 19.502 75.75 25.052 79.05 Q 30.48 82.278 39.641 86.367 A 277.333 277.333 0 0 0 40.052 86.55 A 262.368 262.368 0 0 1 45.303 88.979 Q 50.312 91.368 53.746 93.324 A 74.009 74.009 0 0 1 54.227 93.6 Q 59.402 96.6 63.002 101.4 A 17.764 17.764 0 0 1 66.276 109.213 A 24.088 24.088 0 0 1 66.602 113.25 Q 66.656 117.984 65.566 121.928 A 22.063 22.063 0 0 1 58.202 133.35 A 29.935 29.935 0 0 1 45.522 139.409 A 43.291 43.291 0 0 1 36.002 140.4 Q 25.952 140.4 16.877 136.425 Q 7.802 132.45 2.402 124.35 L 14.102 111.3 Q 19.202 123.3 26.552 128.325 A 33.43 33.43 0 0 0 32.001 131.387 Q 36.489 133.35 40.802 133.35 A 19.685 19.685 0 0 0 46.523 132.549 A 16.385 16.385 0 0 0 51.827 129.825 A 11.888 11.888 0 0 0 55.028 126.193 Q 56.359 123.8 56.4 120.795 A 14.063 14.063 0 0 0 56.402 120.6 Q 56.402 115.35 53.177 111.375 A 28.111 28.111 0 0 0 46.613 105.521 A 32.613 32.613 0 0 0 45.152 104.625 A 92.083 92.083 0 0 0 41.815 102.795 Q 37.773 100.678 32.102 98.1 A 236.662 236.662 0 0 1 25.379 94.906 Q 19.436 91.959 15.302 89.4 Q 9.002 85.5 4.502 79.125 A 24.3 24.3 0 0 1 0.419 68.918 A 32.627 32.627 0 0 1 0.002 63.6 Q 0.002 54 5.027 46.125 A 34.083 34.083 0 0 1 18.352 34.105 A 40.466 40.466 0 0 1 18.902 33.825 A 42.33 42.33 0 0 1 35.224 29.508 A 50.61 50.61 0 0 1 38.552 29.4 Q 48.602 29.4 57.602 33.975 Q 66.602 38.55 72.752 46.95 Z" id="0" vector-effect="non-scaling-stroke"/>
		<path d="M 144.152 76.35 L 133.352 82.2 A 21.464 21.464 0 0 0 129.921 78.389 A 28.461 28.461 0 0 0 126.752 75.975 Q 122.552 73.2 117.752 73.2 A 24.807 24.807 0 0 0 110.225 74.305 A 21.432 21.432 0 0 0 104.402 77.175 A 25.125 25.125 0 0 0 95.989 87.273 A 29.954 29.954 0 0 0 95.702 87.9 A 34.984 34.984 0 0 0 92.889 98.869 A 42.508 42.508 0 0 0 92.702 102.9 A 57.172 57.172 0 0 0 93.18 110.524 Q 93.723 114.549 94.88 117.901 A 27.955 27.955 0 0 0 96.752 122.175 Q 100.802 129.6 109.502 129.6 Q 121.802 129.6 126.452 119.7 A 49.692 49.692 0 0 0 131.073 99.917 A 57.847 57.847 0 0 0 131.102 98.1 L 131.102 91.35 L 144.302 85.8 L 144.302 125.25 A 7.277 7.277 0 0 0 145.217 128.76 A 8.675 8.675 0 0 0 145.352 129 A 3.765 3.765 0 0 0 146.321 130.123 Q 147.085 130.702 148.137 130.786 A 4.593 4.593 0 0 0 148.502 130.8 A 6.724 6.724 0 0 0 152.462 129.448 Q 153.572 128.657 154.625 127.401 A 20.32 20.32 0 0 0 156.452 124.8 L 158.702 127.2 A 18.658 18.658 0 0 1 152.68 135.603 A 22.287 22.287 0 0 1 152.402 135.825 A 19.206 19.206 0 0 1 149.062 137.956 Q 146.762 139.089 144.463 139.301 A 11.532 11.532 0 0 1 143.402 139.35 A 13.65 13.65 0 0 1 139.532 138.833 A 9.837 9.837 0 0 1 133.877 134.55 A 17.8 17.8 0 0 1 131.721 129.553 Q 131.103 127.265 130.901 124.552 A 36.95 36.95 0 0 1 130.802 121.8 L 130.502 121.8 A 38.795 38.795 0 0 1 122.305 133.347 A 37.051 37.051 0 0 1 120.377 135.075 A 25.093 25.093 0 0 1 115.085 138.523 A 18.74 18.74 0 0 1 106.952 140.4 A 29.372 29.372 0 0 1 99.004 139.387 A 20.697 20.697 0 0 1 87.677 131.625 A 30.928 30.928 0 0 1 82.732 121.185 Q 81.152 115.385 81.152 108.15 Q 81.152 96.45 86.402 86.175 A 43.533 43.533 0 0 1 98.25 71.561 A 42.616 42.616 0 0 1 100.727 69.75 Q 109.802 63.6 120.752 63.6 Q 128.102 63.6 134.627 66.75 Q 141.152 69.9 144.152 76.35 Z" id="1" vector-effect="non-scaling-stroke"/>
		<path d="M 258.302 75 L 258.302 126 Q 258.302 128.25 259.352 129.675 A 3.47 3.47 0 0 0 260.545 130.721 Q 261.216 131.07 262.058 131.098 A 4.436 4.436 0 0 0 262.202 131.1 A 5.082 5.082 0 0 0 263.864 130.803 Q 264.534 130.571 265.241 130.159 A 11.123 11.123 0 0 0 266.102 129.6 A 13.519 13.519 0 0 0 267.974 127.963 Q 268.807 127.097 269.616 126.004 A 25.315 25.315 0 0 0 270.152 125.25 L 272.552 127.5 A 31.941 31.941 0 0 1 270.466 131.316 Q 269.197 133.281 267.773 134.712 A 14.202 14.202 0 0 1 265.052 136.875 Q 260.702 139.5 263.402 139.425 Q 265.869 139.356 258.441 139.351 A 1877.601 1877.601 0 0 0 256.952 139.35 A 14.46 14.46 0 0 1 251.541 138.418 Q 244.502 135.592 244.502 124.2 L 244.502 82.8 A 4.989 4.989 0 0 0 244.35 81.543 A 3.881 3.881 0 0 0 243.752 80.25 A 2.713 2.713 0 0 0 243.126 79.61 A 2.22 2.22 0 0 0 241.802 79.2 A 3.914 3.914 0 0 0 239.68 79.903 Q 237.402 81.373 234.867 85.917 A 44.327 44.327 0 0 0 234.602 86.4 A 45.888 45.888 0 0 0 232.089 91.978 Q 229.784 98.06 228.002 106.725 A 125.108 125.108 0 0 0 226.019 120.337 Q 225.391 127.095 225.313 134.631 A 208.213 208.213 0 0 0 225.302 136.8 L 211.652 140.7 L 211.652 82.8 A 4.989 4.989 0 0 0 211.5 81.543 A 3.881 3.881 0 0 0 210.902 80.25 A 3.076 3.076 0 0 0 210.403 79.696 A 1.951 1.951 0 0 0 209.102 79.2 A 3.383 3.383 0 0 0 207.286 79.808 Q 204.952 81.303 202.127 86.475 A 48.86 48.86 0 0 0 199.52 92.163 Q 197.156 98.235 195.242 106.808 A 153.52 153.52 0 0 0 195.227 106.875 Q 192.393 119.59 192.304 135.754 A 191.017 191.017 0 0 0 192.302 136.8 L 179.402 140.7 L 179.402 76.5 A 8.263 8.263 0 0 0 179.244 74.837 Q 179.035 73.82 178.549 73.032 A 4.725 4.725 0 0 0 178.127 72.45 Q 176.852 70.95 174.902 70.95 A 5.217 5.217 0 0 0 172.135 71.815 Q 170.286 72.963 168.402 75.632 A 29.922 29.922 0 0 0 167.252 77.4 L 164.852 75 A 33.41 33.41 0 0 1 167.159 70.811 Q 169.497 67.245 172.352 65.325 A 89.098 89.098 0 0 1 173.864 64.328 Q 176.884 62.386 177.677 62.325 A 18.09 18.09 0 0 1 178.225 62.292 Q 178.853 62.263 179.741 62.254 A 84.519 84.519 0 0 1 180.602 62.25 A 26.305 26.305 0 0 1 183.911 62.442 Q 187.474 62.896 189.418 64.421 A 6.093 6.093 0 0 1 190.352 65.325 Q 192.767 68.238 192.894 72.968 A 19.772 19.772 0 0 1 192.902 73.5 L 192.902 98.55 L 193.352 98.55 Q 197.102 82.2 203.477 72.225 A 40.795 40.795 0 0 1 206.461 68.097 Q 211.328 62.25 216.152 62.25 A 12.038 12.038 0 0 1 218.892 62.542 Q 221.546 63.163 223.127 65.1 Q 225.133 67.559 225.408 73.145 A 37.747 37.747 0 0 1 225.452 75 L 225.452 98.55 L 226.352 98.55 A 121.357 121.357 0 0 1 229.439 87.402 Q 231.236 82 233.4 77.546 A 57.591 57.591 0 0 1 236.327 72.225 A 39.934 39.934 0 0 1 239.248 68.097 Q 244.028 62.25 248.852 62.25 A 11.075 11.075 0 0 1 251.795 62.62 A 7.899 7.899 0 0 1 255.827 65.175 Q 258.059 67.813 258.278 73.685 A 35.317 35.317 0 0 1 258.302 75 Z" id="2" vector-effect="non-scaling-stroke"/>
		<path d="M 304.202 64.2 L 304.202 126 A 7.365 7.365 0 0 0 304.366 127.602 Q 304.63 128.786 305.316 129.661 A 4.698 4.698 0 0 0 305.327 129.675 A 3.653 3.653 0 0 0 307.739 131.041 A 5.402 5.402 0 0 0 308.552 131.1 Q 309.771 131.1 311.195 130.281 A 10.725 10.725 0 0 0 312.227 129.6 A 15.082 15.082 0 0 0 313.884 128.158 Q 315.105 126.942 316.352 125.25 L 318.752 127.5 Q 315.302 133.95 310.427 136.65 Q 306.723 138.701 303.495 139.194 A 13.2 13.2 0 0 1 301.502 139.35 A 13.537 13.537 0 0 1 298.081 138.942 A 9.357 9.357 0 0 1 293.177 135.9 A 9.882 9.882 0 0 1 291.511 132.961 Q 290.451 130.144 290.283 125.861 A 42.465 42.465 0 0 1 290.252 124.2 L 290.252 69.6 L 304.202 64.2 Z M 304.352 13.5 L 299.252 48.45 L 294.302 50.25 L 288.152 19.05 L 304.352 13.5 Z" id="3" vector-effect="non-scaling-stroke"/>
		<path d="M 382.952 128.1 L 381.302 125.85 A 20.613 20.613 0 0 1 377.62 127.86 Q 375.042 128.924 372.511 128.995 A 12.887 12.887 0 0 1 372.152 129 A 15.91 15.91 0 0 1 367.735 128.422 A 11.415 11.415 0 0 1 361.502 124.05 A 18.673 18.673 0 0 1 358.156 115.647 A 24.671 24.671 0 0 1 357.902 112.05 Q 357.902 100.65 363.752 90.45 Q 367.788 83.413 373.323 76.661 A 120.479 120.479 0 0 1 378.602 70.65 L 376.202 68.55 Q 365.702 75.15 357.002 75.15 A 11.278 11.278 0 0 1 350.344 72.938 A 16.911 16.911 0 0 1 347.702 70.575 Q 343.502 66 341.252 60.45 L 329.102 74.1 Q 329.991 76.641 333.462 79.827 A 39.889 39.889 0 0 0 334.802 81 L 324.752 102 L 330.302 104.55 L 340.052 83.1 A 35.616 35.616 0 0 0 341.557 83.683 Q 343.014 84.207 344.099 84.421 A 10.16 10.16 0 0 0 344.252 84.45 A 14.898 14.898 0 0 0 345.4 84.608 Q 346.596 84.73 348.212 84.747 A 50.909 50.909 0 0 0 348.752 84.75 A 28.337 28.337 0 0 0 360.597 82.268 A 27.687 27.687 0 0 0 362.252 81.45 L 362.702 81.9 A 51.503 51.503 0 0 0 356.42 90.019 Q 353.877 94.038 351.693 98.876 A 86.968 86.968 0 0 0 351.077 100.275 A 68.84 68.84 0 0 0 347.966 108.978 Q 346.67 113.625 346.326 117.876 A 37.474 37.474 0 0 0 346.202 120.9 A 30.805 30.805 0 0 0 346.783 127.048 Q 347.594 131.028 349.533 134.168 A 19.381 19.381 0 0 0 349.727 134.475 A 11.5 11.5 0 0 0 357.63 139.649 A 18.446 18.446 0 0 0 361.052 139.95 A 23.911 23.911 0 0 0 372.765 136.853 A 28.076 28.076 0 0 0 373.127 136.65 Q 378.902 133.35 382.952 128.1 Z" id="4" vector-effect="non-scaling-stroke"/>
		<path d="M 453.452 108 L 454.202 103.95 A 51.006 51.006 0 0 0 471.143 99.044 A 59.551 59.551 0 0 0 473.852 97.65 Q 483.452 92.4 489.527 83.925 Q 495.602 75.45 495.602 65.1 A 30.119 30.119 0 0 0 494.642 57.295 A 22.099 22.099 0 0 0 488.777 47.1 A 21.636 21.636 0 0 0 480.023 41.94 Q 476.625 40.847 472.501 40.505 A 47.266 47.266 0 0 0 468.602 40.35 Q 458.252 40.35 446.777 45.225 A 71.844 71.844 0 0 0 430.776 54.516 A 65.375 65.375 0 0 0 426.752 57.9 L 423.902 54.75 Q 434.852 44.55 449.477 37.95 Q 464.102 31.35 477.752 31.35 Q 492.002 31.35 501.077 39.075 Q 510.152 46.8 510.152 62.25 A 35.722 35.722 0 0 1 503.722 82.623 A 45.364 45.364 0 0 1 501.902 85.125 A 59.139 59.139 0 0 1 482.412 101.196 A 68.76 68.76 0 0 1 480.827 102 A 61.995 61.995 0 0 1 465.57 107.26 A 53.551 53.551 0 0 1 455.102 108.3 A 9.485 9.485 0 0 1 454.596 108.288 Q 453.867 108.249 453.57 108.086 A 0.518 0.518 0 0 1 453.452 108 Z M 447.302 53.1 L 447.302 135.3 L 433.502 140.55 L 433.502 58.5 L 447.302 53.1 Z" id="6" vector-effect="non-scaling-stroke"/>
		<path d="M 570.902 76.35 L 560.102 82.2 A 21.464 21.464 0 0 0 556.671 78.389 A 28.461 28.461 0 0 0 553.502 75.975 Q 549.302 73.2 544.502 73.2 A 24.807 24.807 0 0 0 536.975 74.305 A 21.432 21.432 0 0 0 531.152 77.175 A 25.125 25.125 0 0 0 522.739 87.273 A 29.954 29.954 0 0 0 522.452 87.9 A 34.984 34.984 0 0 0 519.639 98.869 A 42.508 42.508 0 0 0 519.452 102.9 A 57.172 57.172 0 0 0 519.93 110.524 Q 520.473 114.549 521.63 117.901 A 27.955 27.955 0 0 0 523.502 122.175 Q 527.552 129.6 536.252 129.6 Q 548.552 129.6 553.202 119.7 A 49.692 49.692 0 0 0 557.823 99.917 A 57.847 57.847 0 0 0 557.852 98.1 L 557.852 91.35 L 571.052 85.8 L 571.052 125.25 A 7.277 7.277 0 0 0 571.967 128.76 A 8.675 8.675 0 0 0 572.102 129 A 3.765 3.765 0 0 0 573.071 130.123 Q 573.835 130.702 574.887 130.786 A 4.593 4.593 0 0 0 575.252 130.8 A 6.724 6.724 0 0 0 579.212 129.448 Q 580.322 128.657 581.375 127.401 A 20.32 20.32 0 0 0 583.202 124.8 L 585.452 127.2 A 18.658 18.658 0 0 1 579.43 135.603 A 22.287 22.287 0 0 1 579.152 135.825 A 19.206 19.206 0 0 1 575.812 137.956 Q 573.512 139.089 571.213 139.301 A 11.532 11.532 0 0 1 570.152 139.35 A 13.65 13.65 0 0 1 566.282 138.833 A 9.837 9.837 0 0 1 560.627 134.55 A 17.8 17.8 0 0 1 558.471 129.553 Q 557.853 127.265 557.651 124.552 A 36.95 36.95 0 0 1 557.552 121.8 L 557.252 121.8 A 38.795 38.795 0 0 1 549.055 133.347 A 37.051 37.051 0 0 1 547.127 135.075 A 25.093 25.093 0 0 1 541.835 138.523 A 18.74 18.74 0 0 1 533.702 140.4 A 29.372 29.372 0 0 1 525.754 139.387 A 20.697 20.697 0 0 1 514.427 131.625 A 30.928 30.928 0 0 1 509.482 121.185 Q 507.902 115.385 507.902 108.15 Q 507.902 96.45 513.152 86.175 A 43.533 43.533 0 0 1 525 71.561 A 42.616 42.616 0 0 1 527.477 69.75 Q 536.552 63.6 547.502 63.6 Q 554.852 63.6 561.377 66.75 Q 567.902 69.9 570.902 76.35 Z" id="7" vector-effect="non-scaling-stroke"/>
		<path d="M 659.402 61.5 L 659.402 125.55 A 7.365 7.365 0 0 0 659.566 127.152 Q 659.83 128.336 660.516 129.211 A 4.698 4.698 0 0 0 660.527 129.225 A 3.653 3.653 0 0 0 662.939 130.591 A 5.402 5.402 0 0 0 663.752 130.65 A 4.587 4.587 0 0 0 665.796 130.107 Q 668.273 128.868 671.402 124.8 L 673.652 127.05 A 31.793 31.793 0 0 1 671.391 131.137 Q 670.055 133.159 668.54 134.627 A 14.983 14.983 0 0 1 666.077 136.575 L 661.652 139.35 L 657.752 139.35 Q 654.13 139.35 651.832 137.813 A 7.453 7.453 0 0 1 650.477 136.65 A 9.238 9.238 0 0 1 649.069 134.545 Q 647.673 131.77 646.952 126.975 A 70.073 70.073 0 0 1 646.444 122.512 Q 646.029 117.617 645.931 110.656 A 319.151 319.151 0 0 1 645.902 106.2 Q 645.902 99.884 645.989 95.502 A 245.547 245.547 0 0 1 646.052 93 L 644.852 90 L 644.402 90 Q 640.502 108.45 633.527 124.425 A 39.527 39.527 0 0 1 629.669 131.414 Q 623.327 140.4 613.652 140.4 Q 610.711 140.4 608.756 139.499 A 6.35 6.35 0 0 1 606.677 138 A 9.538 9.538 0 0 1 604.794 134.807 Q 604.252 133.312 604.052 131.475 Q 603.602 127.35 603.602 118.8 L 603.602 76.5 Q 603.602 73.95 602.477 72.45 A 3.575 3.575 0 0 0 599.876 70.973 A 4.698 4.698 0 0 0 599.402 70.95 Q 595.802 70.95 591.302 76.95 L 589.502 74.55 Q 591.902 68.85 595.577 66.075 A 24.83 24.83 0 0 1 598.215 64.32 Q 600.436 63.052 602.477 62.625 Q 605.59 61.973 605.698 62.37 A 0.113 0.113 0 0 1 605.702 62.4 A 0.892 0.892 0 0 0 605.605 62.406 Q 605.467 62.421 605.252 62.475 Q 605.002 62.537 604.545 62.548 A 8.435 8.435 0 0 1 604.352 62.55 Q 616.625 62.55 617.221 75.993 A 31.782 31.782 0 0 1 617.252 77.4 L 617.252 120.6 Q 617.252 123.189 617.713 124.624 A 4.399 4.399 0 0 0 618.002 125.325 Q 618.752 126.75 619.802 126.75 Q 625.116 126.75 629.819 118.197 A 51.504 51.504 0 0 0 631.802 114.15 A 147.863 147.863 0 0 0 638.345 96.068 A 178.066 178.066 0 0 0 640.877 86.4 Q 644.402 71.25 644.402 68.25 L 659.402 61.5 Z" id="8" vector-effect="non-scaling-stroke"/>
		<path d="M 703.052 0 L 703.052 126 A 6.211 6.211 0 0 0 703.855 129.035 A 7.602 7.602 0 0 0 704.102 129.45 Q 705.101 131.02 707.458 131.096 A 7.553 7.553 0 0 0 707.702 131.1 Q 709.802 131.1 712.127 129.225 A 17.138 17.138 0 0 0 714.031 127.449 A 12.384 12.384 0 0 0 715.652 125.25 L 718.202 127.5 Q 715.652 132.45 711.152 135.9 Q 707.091 139.013 703.03 139.317 A 11.768 11.768 0 0 1 702.152 139.35 A 14.829 14.829 0 0 1 696.713 138.432 Q 689.552 135.622 689.552 124.2 L 689.552 5.7 L 703.052 0 Z" id="9" vector-effect="non-scaling-stroke"/>
	</g>
</svg>