<svg width="341" height="223" viewBox="0 0 341 223" fill="none" xmlns="http://www.w3.org/2000/svg">
<path d="M144.514 214.811L8.35687 146.979C6.14663 145.877 6.13889 142.727 8.34369 141.615L98.5537 96.1177C99.9498 95.4135 101.595 95.4031 103 96.0894L234.896 160.518C237.063 161.577 237.159 164.629 235.063 165.821L149.217 214.681C147.769 215.506 146.005 215.554 144.514 214.811Z" fill="url(#paint0_linear)" fill-opacity="0.35"/>
<path d="M106 140.874L225.741 195.688C233.03 199.025 241.476 198.664 248.454 194.718L296.824 167.362C298.392 166.475 299.362 164.812 299.362 163.01V140.874L303.5 93.5M106 140.874L57.4211 164.818C50.7756 168.094 43 163.258 43 155.849V123.5M106 140.874V66.5" stroke="url(#paint1_linear)" stroke-opacity="0.5" stroke-width="6"/>
<circle cx="107" cy="43" r="41" fill="url(#paint2_linear)" stroke="#EFF7FF" stroke-width="4"/>
<circle cx="298" cy="105" r="41" fill="url(#paint3_linear)" stroke="#EFF7FF" stroke-width="4"/>
<path d="M129.022 196.367C129.022 210.844 153.093 222.58 182.783 222.58C212.473 222.58 236.544 210.844 236.544 196.367C236.544 191.107 236.544 169.53 236.544 169.53C236.544 169.53 201.699 170.154 182.783 170.154C170.394 170.154 129.022 170.154 129.022 170.154C129.022 170.154 129.022 187.924 129.022 196.367Z" fill="url(#paint4_linear)"/>
<path d="M182.761 194.622C212.452 194.622 236.522 182.886 236.522 168.409C236.522 153.932 212.452 142.196 182.761 142.196C153.07 142.196 129 153.932 129 168.409C129 182.886 153.07 194.622 182.761 194.622Z" fill="url(#paint5_linear)"/>
<path d="M129.022 161.402C129.022 175.879 153.093 187.615 182.783 187.615C212.473 187.615 236.544 175.879 236.544 161.402C236.544 156.142 236.544 135.189 236.544 135.189C236.544 135.189 201.699 135.189 182.783 135.189C170.394 135.189 129.022 135.189 129.022 135.189C129.022 135.189 129.022 152.959 129.022 161.402Z" fill="url(#paint6_linear)"/>
<path d="M182.761 161.445C212.452 161.445 236.522 149.709 236.522 135.232C236.522 120.755 212.452 109.02 182.761 109.02C153.07 109.02 129 120.755 129 135.232C129 149.709 153.07 161.445 182.761 161.445Z" fill="url(#paint7_linear)"/>
<path d="M129.022 126.437C129.022 140.913 153.093 152.649 182.784 152.649C212.474 152.649 236.545 140.913 236.545 126.437C236.545 121.176 236.545 100.224 236.545 100.224C236.545 100.224 201.699 100.224 182.784 100.224C170.394 100.224 129.022 100.224 129.022 100.224C129.022 100.224 129.022 117.994 129.022 126.437Z" fill="url(#paint8_linear)"/>
<path d="M182.761 126.426C212.452 126.426 236.522 114.69 236.522 100.213C236.522 85.7359 212.452 74 182.761 74C153.07 74 129 85.7359 129 100.213C129 114.69 153.07 126.426 182.761 126.426Z" fill="url(#paint9_linear)"/>
<path fill-rule="evenodd" clip-rule="evenodd" d="M148.712 113.341C150.526 114.999 152.894 116.148 155.504 116.656C163.845 118.27 168.026 117.253 171.013 113.695C174.487 109.584 177.717 103.042 177.717 103.042L167.031 101.428L150.394 107.484C147.628 108.479 146.743 111.529 148.712 113.341Z" fill="url(#paint10_linear)"/>
<path fill-rule="evenodd" clip-rule="evenodd" d="M193.624 88.1232L186.986 86.4655C179.066 84.9847 177.163 86.7528 173.823 88.963L164.641 97.1849C162.053 99.7487 163.491 102.865 168.181 103.594L172.208 104.501C178.115 105.385 180.327 104.412 184.907 101.384L194.376 94.4001C198.557 91.35 196.964 88.8967 193.624 88.1232ZM180.305 99.1078C179.154 99.9034 177.672 100.721 175.947 100.412L170.106 99.2183C168.447 98.953 168.823 97.848 169.995 97.0744C171.168 96.3008 171.854 95.7262 173.513 95.9914L179.442 97.207C181.101 97.4943 181.477 98.3342 180.305 99.1078ZM190.902 92.0573L186.92 95.0852C185.991 95.7041 184.154 96.0356 182.827 95.8367L175.77 94.378C174.442 94.1791 174.132 93.4939 175.062 92.875L178.801 89.8913C179.73 89.2724 181.566 88.9409 182.893 89.1398L190.194 90.5544C191.522 90.7533 191.831 91.4163 190.902 92.0573Z" fill="url(#paint11_linear)"/>
<circle cx="43" cy="101" r="41" fill="url(#paint12_linear)" stroke="#EFF7FF" stroke-width="4"/>
<path d="M125.279 39.8322C124.867 39.8322 124.454 39.8322 124.041 39.8322C122.886 39.9155 121.812 39.1662 121.565 38.0008C119.914 30.3419 112.98 24.681 104.89 25.014C96.5524 25.2637 89.6183 32.0069 89.0404 40.415C88.3801 49.9886 95.892 57.9805 105.303 58.147H124.619C129.737 58.147 133.947 53.818 133.699 48.5734C133.534 43.9114 129.82 40.082 125.279 39.8322Z" fill="white"/>
<path d="M88.1652 42.5291C88.516 42.5291 88.8668 42.5291 89.2176 42.5291C90.1998 42.5995 91.1119 41.9666 91.3224 40.982C92.7256 34.5124 98.6191 29.7305 105.495 30.0118C112.581 30.2228 118.474 35.9189 118.966 43.0214C119.527 51.1084 113.142 57.8594 105.144 58H88.7265C84.3765 58 80.7984 54.3432 81.0088 49.913C81.1492 45.9749 84.3064 42.7401 88.1652 42.5291Z" fill="white"/>
<path d="M57.463 94.0077H25.0533C24.4861 94.0077 24 93.5174 24 92.9454V87.0622C24 86.4903 24.4861 86 25.0533 86H57.382C57.9492 86 58.4353 86.4903 58.4353 87.0622V92.9454C58.5164 93.5174 58.0302 94.0077 57.463 94.0077Z" fill="white"/>
<path d="M57.463 105.284H25.0533C24.4861 105.284 24 104.794 24 104.222V98.3384C24 97.7664 24.4861 97.2761 25.0533 97.2761H57.382C57.9492 97.2761 58.4353 97.7664 58.4353 98.3384V104.222C58.5164 104.794 58.0302 105.284 57.463 105.284Z" fill="white"/>
<path d="M57.463 116.56H25.0533C24.4861 116.56 24 116.069 24 115.497V109.614C24 109.042 24.4861 108.552 25.0533 108.552H57.382C57.9492 108.552 58.4353 109.042 58.4353 109.614V115.497C58.5164 116.069 58.0302 116.56 57.463 116.56Z" fill="white"/>
<path fill-rule="evenodd" clip-rule="evenodd" d="M319.759 92.2071H320.444C322.956 92.3453 325.011 94.4643 325.103 97.0439C325.24 99.9459 322.91 102.341 320.078 102.341H309.39C304.183 102.249 300.026 97.827 300.392 92.5296C300.711 87.8771 304.548 84.1459 309.161 84.0077C313.638 83.8235 317.475 86.9558 318.388 91.1937C318.525 91.8386 319.119 92.2532 319.759 92.2071ZM298.427 90.3185C290.936 90.3185 284.861 96.4451 284.861 104H279.608C279.608 93.497 288.059 84.9751 298.427 84.9751V90.3185ZM298.473 118.602C305.964 118.602 312.039 112.475 312.039 104.921H317.338C317.338 115.424 308.888 123.945 298.473 123.945V118.602ZM294.865 111.232H276.594C276.274 111.232 276 110.955 276 110.633V107.316C276 106.994 276.274 106.717 276.594 106.717H294.819C295.139 106.717 295.413 106.994 295.413 107.316V110.633C295.458 110.955 295.184 111.232 294.865 111.232ZM276.594 117.589H294.865C295.184 117.589 295.458 117.312 295.413 116.99V113.673C295.413 113.351 295.139 113.074 294.819 113.074H276.594C276.274 113.074 276 113.351 276 113.673V116.99C276 117.312 276.274 117.589 276.594 117.589ZM294.865 123.945H276.594C276.274 123.945 276 123.669 276 123.346V120.03C276 119.707 276.274 119.431 276.594 119.431H294.819C295.139 119.431 295.413 119.707 295.413 120.03V123.346C295.458 123.669 295.184 123.945 294.865 123.945Z" fill="white"/>
<defs>
<linearGradient id="paint0_linear" x1="135.579" y1="177.16" x2="104.659" y2="128.714" gradientUnits="userSpaceOnUse">
<stop stop-color="#2B81E3"/>
<stop offset="1" stop-color="#2B81E3" stop-opacity="0"/>
</linearGradient>
<linearGradient id="paint1_linear" x1="198.5" y1="134" x2="303" y2="208" gradientUnits="userSpaceOnUse">
<stop stop-color="#0060CA"/>
<stop offset="1" stop-color="#98C9FF"/>
</linearGradient>
<linearGradient id="paint2_linear" x1="64" y1="53.75" x2="166.538" y2="86" gradientUnits="userSpaceOnUse">
<stop stop-color="#5DAAFF"/>
<stop offset="1" stop-color="#0060CA"/>
</linearGradient>
<linearGradient id="paint3_linear" x1="255" y1="115.75" x2="357.538" y2="148" gradientUnits="userSpaceOnUse">
<stop stop-color="#5DAAFF"/>
<stop offset="1" stop-color="#0060CA"/>
</linearGradient>
<linearGradient id="paint4_linear" x1="236.522" y1="196.362" x2="129.021" y2="196.362" gradientUnits="userSpaceOnUse">
<stop stop-color="#90CBFF"/>
<stop offset="1" stop-color="#0077FF"/>
</linearGradient>
<linearGradient id="paint5_linear" x1="129.021" y1="168.409" x2="236.522" y2="168.409" gradientUnits="userSpaceOnUse">
<stop stop-color="#2498FF"/>
<stop offset="1" stop-color="#2B81E3"/>
</linearGradient>
<linearGradient id="paint6_linear" x1="236.522" y1="161.397" x2="129.021" y2="161.397" gradientUnits="userSpaceOnUse">
<stop stop-color="white"/>
<stop offset="0.1875" stop-color="#90CBFF"/>
<stop offset="1" stop-color="#0077FF"/>
</linearGradient>
<linearGradient id="paint7_linear" x1="129.021" y1="135.232" x2="236.522" y2="135.232" gradientUnits="userSpaceOnUse">
<stop stop-color="#2297FF"/>
<stop offset="1" stop-color="#2B81E3"/>
</linearGradient>
<linearGradient id="paint8_linear" x1="236.523" y1="126.426" x2="129.022" y2="126.426" gradientUnits="userSpaceOnUse">
<stop stop-color="white"/>
<stop offset="0.234375" stop-color="#90CBFF"/>
<stop offset="1" stop-color="#0C7DFF"/>
</linearGradient>
<linearGradient id="paint9_linear" x1="129.021" y1="100.208" x2="236.522" y2="100.208" gradientUnits="userSpaceOnUse">
<stop stop-color="white"/>
<stop offset="1" stop-color="#AAD3FF"/>
</linearGradient>
<linearGradient id="paint10_linear" x1="147.866" y1="112.469" x2="178.458" y2="107.097" gradientUnits="userSpaceOnUse">
<stop stop-color="#388BE7"/>
<stop offset="1" stop-color="#2B81E3"/>
</linearGradient>
<linearGradient id="paint11_linear" x1="162.508" y1="98.4533" x2="194.213" y2="84.4615" gradientUnits="userSpaceOnUse">
<stop stop-color="#5DAAFF"/>
<stop offset="1" stop-color="#2B81E3"/>
</linearGradient>
<linearGradient id="paint12_linear" x1="-1.45709e-06" y1="111.75" x2="102.538" y2="144" gradientUnits="userSpaceOnUse">
<stop stop-color="#5DAAFF"/>
<stop offset="1" stop-color="#0060CA"/>
</linearGradient>
</defs>
</svg>
